<?xml version="1.0" encoding="UTF-8" standalone="no"?>
<svg
   xmlns:dc="http://purl.org/dc/elements/1.1/"
   xmlns:cc="http://creativecommons.org/ns#"
   xmlns:rdf="http://www.w3.org/1999/02/22-rdf-syntax-ns#"
   xmlns:svg="http://www.w3.org/2000/svg"
   xmlns="http://www.w3.org/2000/svg"
   viewBox="0 0 576 576"
   height="576"
   width="576"
   xml:space="preserve"
   id="svg2"
   version="1.1"><metadata
     id="metadata8"><rdf:RDF><cc:Work
         rdf:about=""><dc:format>image/svg+xml</dc:format><dc:type
           rdf:resource="http://purl.org/dc/dcmitype/StillImage" /></cc:Work></rdf:RDF></metadata><defs
     id="defs6"><clipPath
       id="clipPath62"
       clipPathUnits="userSpaceOnUse"><path
         id="path60"
         d="M 0,432 H 432 V 0 H 0 Z" /></clipPath></defs><g
     transform="matrix(1.3333333,0,0,-1.3333333,0,576)"
     id="g10"><g
       transform="translate(156.7275,305.272)"
       id="g12"><path
         id="path14"
         style="fill:#000000;fill-opacity:1;fill-rule:nonzero;stroke:none"
         d="m 0,0 -50.911,-50.912 -12.729,12.728 50.912,50.912 z" /></g><g
       transform="translate(118.5439,267.0884)"
       id="g16"><path
         id="path18"
         style="fill:#000000;fill-opacity:1;fill-rule:nonzero;stroke:none"
         d="m 0,0 -12.728,-12.728 38.184,-38.185 12.728,12.729 z" /></g><g
       transform="translate(144,279.8164)"
       id="g20"><path
         id="path22"
         style="fill:#000000;fill-opacity:1;fill-rule:nonzero;stroke:none"
         d="m 0,0 -12.728,-12.728 31.82,-31.82 12.728,12.728 z" /></g><g
       transform="translate(163.0918,298.9082)"
       id="g24"><path
         id="path26"
         style="fill:#000000;fill-opacity:1;fill-rule:nonzero;stroke:none"
         d="m 0,0 -31.819,-31.82 12.727,-12.728 31.821,31.82 z" /></g><g
       transform="translate(194.9121,267.0884)"
       id="g28"><path
         id="path30"
         style="fill:#000000;fill-opacity:1;fill-rule:nonzero;stroke:none"
         d="m 0,0 -25.456,-25.456 -12.729,12.728 25.456,25.456 z" /></g><path
       id="path32"
       style="fill:#000000;fill-opacity:1;fill-rule:nonzero;stroke:none"
       d="M 130.5,303.088 H 93 v -18 h 37.5 z" /><g
       transform="translate(288,279.8164)"
       id="g34"><path
         id="path36"
         style="fill:#000000;fill-opacity:1;fill-rule:nonzero;stroke:none"
         d="M 0,0 -12.728,-12.728 19.092,-44.549 31.82,-31.82 Z" /></g><g
       transform="translate(307.0918,298.9082)"
       id="g38"><path
         id="path40"
         style="fill:#000000;fill-opacity:1;fill-rule:nonzero;stroke:none"
         d="m 0,0 -31.819,-31.82 12.727,-12.728 31.821,31.82 z" /></g><g
       transform="translate(338.9121,267.0884)"
       id="g42"><path
         id="path44"
         style="fill:#000000;fill-opacity:1;fill-rule:nonzero;stroke:none"
         d="m 0,0 -25.456,-25.456 -12.729,12.728 25.456,25.456 z" /></g><g
       transform="translate(300.7275,305.272)"
       id="g46"><path
         id="path48"
         style="fill:#ed1c24;fill-opacity:1;fill-rule:nonzero;stroke:none"
         d="m 0,0 -50.911,-50.912 -12.729,12.728 50.912,50.912 z" /></g><g
       transform="translate(262.5439,267.0884)"
       id="g50"><path
         id="path52"
         style="fill:#ed1c24;fill-opacity:1;fill-rule:nonzero;stroke:none"
         d="m 0,0 -12.728,-12.728 38.184,-38.185 12.728,12.729 z" /></g><path
       id="path54"
       style="fill:#ed1c24;fill-opacity:1;fill-rule:nonzero;stroke:none"
       d="M 274.5,302.5 H 237 v -18 h 37.5 z" /><g
       id="g56"><g
         clip-path="url(#clipPath62)"
         id="g58"><text
           id="text66"
           style="font-variant:normal;font-weight:bold;font-stretch:normal;font-size:24px;font-family:Corbel;-inkscape-font-specification:Corbel-Bold;writing-mode:lr-tb;fill:#231f20;fill-opacity:1;fill-rule:nonzero;stroke:none"
           transform="matrix(1,0,0,-1,93,184.0322)"><tspan
             id="tspan64"
             y="0"
             x="0 15.672 35.880001 52.872002 72.216003 88.416">TOPHER</tspan></text>
<text
           id="text70"
           style="font-variant:normal;font-weight:normal;font-stretch:normal;font-size:12px;font-family:Corbel;-inkscape-font-specification:Corbel;writing-mode:lr-tb;fill:#231f20;fill-opacity:1;fill-rule:nonzero;stroke:none"
           transform="matrix(1,0,0,-1,93,170.0166)"><tspan
             id="tspan68"
             y="0"
             x="0 14.532 29.087999 43.164001 57.599998 71.723999 82.127998 96.875999">CREATIVE</tspan></text>
<text
           id="text74"
           style="font-variant:normal;font-weight:bold;font-stretch:normal;font-size:24px;font-family:Corbel;-inkscape-font-specification:Corbel-Bold;writing-mode:lr-tb;fill:#ed1c24;fill-opacity:1;fill-rule:nonzero;stroke:none"
           transform="matrix(1,0,0,-1,237,184.0322)"><tspan
             id="tspan72"
             y="0"
             x="0 15.672 35.880001 52.872002 72.216003 88.416">TOPHER</tspan></text>
<text
           id="text78"
           style="font-variant:normal;font-weight:normal;font-stretch:normal;font-size:12px;font-family:Corbel;-inkscape-font-specification:Corbel;writing-mode:lr-tb;fill:#231f20;fill-opacity:1;fill-rule:nonzero;stroke:none"
           transform="matrix(1,0,0,-1,237,170.0166)"><tspan
             id="tspan76"
             y="0"
             x="0 14.532 29.087999 43.164001 57.599998 71.723999 82.127998 96.875999">CREATIVE</tspan></text>
</g></g></g></svg>