<?xml version="1.0" encoding="UTF-8" standalone="no"?>
<svg
   xmlns:dc="http://purl.org/dc/elements/1.1/"
   xmlns:cc="http://creativecommons.org/ns#"
   xmlns:rdf="http://www.w3.org/1999/02/22-rdf-syntax-ns#"
   xmlns:svg="http://www.w3.org/2000/svg"
   xmlns="http://www.w3.org/2000/svg"
   xmlns:xlink="http://www.w3.org/1999/xlink"
   xmlns:sodipodi="http://sodipodi.sourceforge.net/DTD/sodipodi-0.dtd"
   xmlns:inkscape="http://www.inkscape.org/namespaces/inkscape"
   viewBox="0 0 576 576"
   height="576pt"
   width="100%"
   version="1.1"
   id="svg5869"
   sodipodi:docname="angled_square_logos-stroke-and-fill.svg"
   inkscape:version="0.92.2 5c3e80d, 2017-08-06">
  <metadata
     id="metadata5873">
    <rdf:RDF>
      <cc:Work
         rdf:about="">
        <dc:format>image/svg+xml</dc:format>
        <dc:type
           rdf:resource="http://purl.org/dc/dcmitype/StillImage" />
      </cc:Work>
    </rdf:RDF>
  </metadata>
  <sodipodi:namedview
     pagecolor="#ffffff"
     bordercolor="#666666"
     borderopacity="1"
     objecttolerance="10"
     gridtolerance="10"
     guidetolerance="10"
     inkscape:pageopacity="0"
     inkscape:pageshadow="2"
     inkscape:window-width="2413"
     inkscape:window-height="1220"
     id="namedview5871"
     showgrid="false"
     inkscape:zoom="1.6361898"
     inkscape:cx="250.76532"
     inkscape:cy="293.25787"
     inkscape:window-x="0"
     inkscape:window-y="23"
     inkscape:window-maximized="0"
     inkscape:current-layer="g5867" />
  <defs
     id="defs5707">
    <path
       d="M0.00 0.00 L576.00 0.00 L576.00 576.00 L0.00 576.00 L0.00 0.00"
       id="p1" />
    <path
       d="M172.06 171.89 C178.76 165.31 185.34 158.63 192.00 152.00 C197.66 157.66 203.32 163.32 208.98 168.98 C189.46 188.46 170.02 208.03 150.42 227.42 C147.61 230.33 144.52 232.99 142.04 236.20 C143.90 235.49 145.11 233.84 146.51 232.51 C150.47 228.40 154.71 224.53 158.53 220.28 C175.23 237.25 192.17 253.98 208.98 270.84 C203.32 276.50 197.66 282.16 192.00 287.82 C175.04 270.84 158.03 253.90 141.11 236.90 C135.40 231.26 129.76 225.57 124.08 219.91 C132.11 211.90 140.10 203.87 148.14 195.88 C140.09 195.89 132.05 195.88 124.00 195.88 C124.00 187.88 124.00 179.88 124.00 171.88 C140.02 171.88 156.04 171.88 172.06 171.89"
       id="p2" />
    <path
       d="M364.48 171.48 C371.04 165.05 377.47 158.48 384.00 152.00 C389.65 157.66 395.32 163.32 400.98 168.98 C383.71 186.16 366.61 203.52 349.24 220.58 C349.56 220.51 350.21 220.37 350.53 220.30 C367.25 237.24 384.17 253.99 400.98 270.84 C395.32 276.50 389.66 282.16 384.00 287.82 C361.35 265.19 338.72 242.54 316.09 219.91 C323.88 212.16 331.59 204.33 339.43 196.63 C331.62 196.71 323.81 196.65 316.00 196.67 C315.99 188.67 316.00 180.67 316.00 172.67 C330.68 172.68 345.37 172.65 360.05 172.69 C361.59 172.64 363.41 172.84 364.48 171.48"
       id="p3" />
    <path
       d="M174.77 219.90 C188.90 205.60 203.51 191.80 217.47 177.33 C223.05 183.15 228.78 188.84 234.57 194.45 C225.91 202.81 217.53 211.45 208.98 219.91 C211.81 222.74 214.64 225.57 217.47 228.40 C225.95 219.91 234.44 211.43 242.93 202.94 C248.59 208.59 254.25 214.26 259.91 219.91 C251.92 227.94 243.85 235.89 235.91 243.97 C230.08 250.45 223.38 256.07 217.47 262.47 C203.48 248.03 188.89 234.20 174.77 219.90"
       id="p4" />
    <path
       d="M366.77 219.90 C380.90 205.60 395.51 191.80 409.47 177.33 C415.05 183.15 420.78 188.84 426.57 194.45 C417.91 202.81 409.53 211.45 400.98 219.91 C403.80 222.74 406.64 225.57 409.47 228.40 C417.95 219.91 426.44 211.43 434.93 202.94 C440.59 208.59 446.24 214.26 451.91 219.91 C437.70 234.03 423.69 248.35 409.47 262.47 C395.48 248.04 380.89 234.20 366.77 219.90"
       id="p5" />
    <path
       d="M153.51 309.74 C157.30 308.90 161.90 309.29 164.56 312.47 C167.49 315.84 167.09 320.72 166.38 324.82 C163.97 333.20 149.76 333.26 147.27 324.93 C145.52 319.38 146.91 311.21 153.51 309.74"
       id="p6" />
    <path
       d="M174.25 309.75 C178.25 309.99 182.47 309.16 186.30 310.68 C190.10 312.29 190.46 317.92 187.68 320.61 C185.03 322.82 181.40 322.46 178.19 322.76 C178.17 325.44 178.18 328.12 178.18 330.80 C176.87 330.85 175.56 330.89 174.25 330.94 C174.30 323.88 174.31 316.81 174.25 309.75"
       id="p7" />
    <path
       d="M197.14 309.74 C198.36 309.75 199.58 309.77 200.80 309.79 C200.80 312.65 200.80 315.52 200.78 318.39 C204.02 318.43 207.26 318.43 210.50 318.42 C210.51 315.53 210.51 312.64 210.44 309.75 C211.43 309.75 213.41 309.76 214.40 309.76 C214.32 316.80 214.40 323.84 214.35 330.88 C213.07 330.87 211.80 330.86 210.52 330.85 C210.50 327.78 210.50 324.71 210.46 321.64 C207.23 321.61 204.00 321.62 200.78 321.62 C200.80 324.71 200.79 327.81 200.82 330.90 C199.50 330.88 198.18 330.87 196.86 330.86 C197.39 323.83 197.10 316.78 197.14 309.74"
       id="p8" />
    <path
       d="M345.43 309.57 C350.17 308.16 356.31 309.89 358.23 314.81 C360.18 320.01 359.51 327.39 354.06 330.23 C349.19 332.40 342.02 331.52 339.58 326.18 C337.05 320.39 338.33 311.29 345.43 309.57"
       id="p9" />
    <path
       d="M436.19 309.63 C441.04 310.09 447.08 308.26 450.96 312.04 C453.84 315.65 451.69 320.78 447.82 322.66 C449.85 325.37 451.84 328.12 453.72 330.94 C451.96 330.97 450.21 330.99 448.45 331.02 C446.06 327.98 444.57 323.78 440.69 322.33 C440.55 325.19 440.56 328.06 440.54 330.93 C439.11 330.96 437.67 331.00 436.25 331.03 C436.23 323.90 436.31 316.76 436.19 309.63"
       id="p10" />
    <path
       d="M124.40 309.75 C130.19 309.79 135.98 309.80 141.76 309.74 C141.80 310.54 141.86 312.13 141.90 312.92 C139.67 312.87 137.45 312.87 135.23 312.84 C135.13 318.84 135.19 324.85 135.18 330.85 C133.87 330.87 132.55 330.89 131.24 330.92 C131.32 325.00 131.27 319.08 131.28 313.16 C129.01 313.02 126.75 312.87 124.48 312.80 C124.46 312.03 124.42 310.51 124.40 309.75"
       id="p11" />
    <path
       d="M222.69 309.75 C227.25 309.79 231.82 309.79 236.38 309.75 C236.39 310.53 236.41 312.09 236.42 312.87 C233.14 312.85 229.85 312.85 226.58 313.10 C226.59 314.88 226.60 316.65 226.60 318.43 C229.35 318.43 232.11 318.43 234.86 318.32 C234.85 319.45 234.85 320.58 234.86 321.72 C232.11 321.61 229.35 321.61 226.59 321.62 C226.60 323.57 226.60 325.52 226.62 327.48 C230.02 327.52 233.43 327.54 236.84 327.45 C236.82 328.59 236.81 329.74 236.82 330.90 C232.11 330.85 227.40 330.87 222.69 330.88 C222.72 323.84 222.73 316.79 222.69 309.75"
       id="p12" />
    <path
       d="M244.44 309.75 C248.85 310.13 253.82 308.80 257.80 311.23 C260.22 312.59 259.93 315.60 259.75 317.96 C259.57 320.26 257.02 321.17 255.49 322.48 C257.52 325.28 259.56 328.07 261.55 330.91 C259.87 330.87 258.20 330.85 256.53 330.82 C254.62 328.00 252.65 325.23 250.74 322.42 C250.17 322.58 249.01 322.90 248.44 323.06 C248.27 325.65 248.37 328.25 248.36 330.85 C247.39 330.86 245.44 330.89 244.47 330.90 C244.51 323.85 244.55 316.80 244.44 309.75"
       id="p13" />
    <path
       d="M316.12 309.64 C322.11 309.63 328.10 309.65 334.09 309.63 C334.09 310.51 334.09 312.29 334.09 313.18 C331.82 313.17 329.55 313.17 327.29 313.17 C327.29 319.12 327.31 325.07 327.27 331.02 C325.82 331.00 324.38 330.97 322.94 330.96 C323.10 325.04 323.06 319.13 323.04 313.22 C320.80 313.19 318.57 313.16 316.34 313.13 C316.28 312.26 316.17 310.52 316.12 309.64"
       id="p14" />
    <path
       d="M365.93 309.63 C369.84 309.72 373.84 309.28 377.68 310.21 C382.12 311.43 382.98 317.88 379.75 320.77 C377.07 322.87 373.50 322.73 370.29 323.03 C370.29 325.68 370.28 328.33 370.27 330.98 C368.86 330.99 367.45 331.00 366.05 331.01 C366.10 323.88 366.01 316.76 365.93 309.63"
       id="p15" />
    <path
       d="M388.78 309.60 C390.21 309.62 391.65 309.65 393.09 309.68 C393.09 312.50 393.09 315.32 393.09 318.14 C396.14 318.16 399.20 318.16 402.26 318.16 C402.25 315.32 402.24 312.48 402.19 309.64 C403.29 309.63 405.50 309.62 406.60 309.61 C406.52 316.74 406.63 323.88 406.52 331.01 C405.11 330.98 403.70 330.95 402.30 330.92 C402.25 327.91 402.24 324.89 402.22 321.88 C399.17 321.87 396.13 321.87 393.09 321.88 C393.09 324.91 393.09 327.94 393.08 330.97 C391.65 330.98 390.22 331.00 388.79 331.01 C388.78 323.87 388.80 316.74 388.78 309.60"
       id="p16" />
    <path
       d="M414.52 309.61 C419.21 309.65 423.90 309.64 428.60 309.62 C428.60 310.51 428.60 312.29 428.60 313.18 C425.34 313.17 422.09 313.18 418.84 313.18 C418.84 314.83 418.85 316.50 418.86 318.17 C421.60 318.16 424.35 318.16 427.10 318.12 C427.09 319.38 427.09 320.64 427.10 321.91 C424.35 321.88 421.60 321.87 418.85 321.87 C418.85 323.66 418.85 325.45 418.86 327.25 C422.27 327.26 425.68 327.26 429.10 327.24 C429.09 328.49 429.08 329.73 429.08 330.98 C424.23 331.01 419.39 331.00 414.54 331.00 C414.53 323.87 414.57 316.74 414.52 309.61"
       id="p17" />
    <path
       d="M154.29 313.29 C157.05 311.86 160.70 313.15 162.05 315.93 C164.21 320.25 162.74 327.62 156.97 327.82 C149.65 327.91 148.19 316.19 154.29 313.29"
       id="p18" />
    <path
       d="M178.25 312.69 C180.97 313.06 186.24 312.80 185.49 316.99 C183.90 319.48 180.80 319.31 178.21 319.43 C178.17 317.18 178.18 314.93 178.25 312.69"
       id="p19" />
    <path
       d="M248.42 312.73 C250.68 312.95 252.94 313.28 255.19 313.64 C255.45 314.23 255.97 315.41 256.23 316.00 C255.98 316.62 255.47 317.87 255.22 318.50 C252.96 319.02 250.68 319.39 248.38 319.61 C248.36 317.31 248.36 315.02 248.42 312.73"
       id="p20" />
    <path
       d="M346.34 313.42 C350.22 311.45 354.68 314.84 354.75 318.95 C355.61 323.01 352.75 328.16 348.16 327.64 C341.63 326.67 340.92 316.31 346.34 313.42"
       id="p21" />
    <path
       d="M370.33 313.00 C372.40 313.32 374.82 312.93 376.58 314.31 C378.26 315.80 376.85 318.33 374.96 318.75 C373.42 319.05 371.85 319.12 370.30 319.25 C370.29 317.16 370.29 315.08 370.33 313.00"
       id="p22" />
    <path
       d="M440.60 313.03 C442.87 313.34 445.63 312.79 447.41 314.59 C448.57 316.05 447.48 318.23 445.82 318.71 C444.09 319.09 442.31 319.14 440.56 319.32 C440.56 317.22 440.57 315.12 440.60 313.03"
       id="p23" />
    <path
       d="M126.51 339.53 C127.93 338.01 130.17 338.24 132.05 337.94 C132.22 338.27 132.57 338.93 132.75 339.25 C131.23 339.42 129.50 338.97 128.19 339.95 C125.62 341.38 125.62 345.66 127.98 347.30 C129.81 347.87 131.77 347.78 133.65 348.09 C131.01 349.27 126.98 349.57 125.58 346.48 C125.01 344.24 124.67 341.29 126.51 339.53"
       id="p24" />
    <path
       d="M144.81 338.13 C147.65 338.22 150.77 338.18 152.70 340.72 C150.61 340.27 148.57 339.64 146.52 339.10 C146.30 340.02 145.88 341.86 145.67 342.78 C146.72 342.91 148.84 343.18 149.90 343.31 L149.75 341.45 C150.42 341.95 151.10 342.46 151.78 342.97 C151.17 343.37 149.96 344.19 149.36 344.59 C150.57 346.17 151.77 347.77 152.83 349.46 C150.39 348.76 149.19 346.48 147.81 344.59 C147.40 344.51 146.57 344.35 146.16 344.27 C146.16 345.84 146.17 347.42 146.18 349.00 L145.16 349.00 C145.18 345.37 144.89 341.75 144.81 338.13"
       id="p25" />
    <path
       d="M164.24 338.32 C166.22 338.30 168.20 338.26 170.19 338.17 C170.33 338.47 170.62 339.08 170.77 339.39 C168.93 339.41 167.09 339.42 165.26 339.45 C165.34 340.58 165.42 341.71 165.52 342.84 C166.88 342.83 168.25 342.83 169.62 342.83 C169.79 343.10 170.13 343.63 170.31 343.90 C168.67 343.88 167.04 343.85 165.42 343.84 C165.40 344.77 165.38 346.62 165.36 347.55 C167.52 347.66 169.68 347.69 171.82 348.03 C169.45 349.15 166.79 348.84 164.25 348.95 C164.28 345.41 164.30 341.86 164.24 338.32"
       id="p26" />
    <path
       d="M184.73 340.76 C185.41 339.70 186.12 338.67 186.86 337.66 C188.43 341.65 190.35 345.52 191.44 349.68 C190.17 348.61 189.41 347.14 188.69 345.68 C187.38 345.62 186.06 345.57 184.75 345.54 C183.90 347.02 183.02 348.52 181.78 349.73 C182.43 347.22 183.49 344.83 184.07 342.31 C184.95 344.10 186.47 344.91 188.52 344.67 C187.90 343.18 187.26 341.69 186.62 340.22 L185.90 342.92 C185.51 342.20 185.12 341.48 184.73 340.76"
       id="p27" />
    <path
       d="M200.15 338.59 C203.15 338.20 206.18 338.34 209.19 338.17 C209.33 338.47 209.62 339.05 209.76 339.34 C208.43 339.39 207.11 339.45 205.79 339.51 C205.80 342.68 205.80 345.85 205.79 349.02 C205.52 349.00 204.97 348.95 204.70 348.93 C204.71 345.83 204.70 342.73 204.77 339.63 C203.20 339.39 201.59 339.31 200.15 338.59"
       id="p28" />
    <path
       d="M221.30 338.14 C221.57 338.13 222.10 338.11 222.37 338.10 C222.07 341.97 223.14 346.13 221.56 349.81 C221.07 345.94 221.30 342.03 221.30 338.14"
       id="p29" />
    <path
       d="M233.87 337.38 C236.37 339.90 236.86 343.61 238.47 346.67 C239.99 343.59 240.35 339.76 243.00 337.33 C241.94 341.55 240.15 345.53 238.51 349.54 C236.57 345.65 234.87 341.61 233.87 337.38"
       id="p30" />
    <path
       d="M254.69 338.21 C256.81 338.27 258.94 338.29 261.07 338.27 C261.08 338.56 261.09 339.13 261.09 339.41 C259.32 339.41 257.55 339.41 255.78 339.43 C255.79 340.22 255.80 341.81 255.81 342.60 C257.67 342.82 259.55 343.01 261.39 343.43 C259.66 343.79 257.88 343.89 256.17 344.28 C256.01 345.09 255.69 346.70 255.53 347.51 C257.74 347.65 259.97 347.68 262.17 348.02 C259.87 349.26 257.21 348.81 254.71 348.90 C254.71 345.33 254.73 341.77 254.69 338.21"
       id="p31" />
    <path
       d="M319.08 339.06 C320.93 337.66 323.45 337.98 325.40 339.00 C322.31 338.92 317.72 339.86 318.29 343.91 C318.05 347.98 322.79 347.86 325.64 348.09 C323.02 349.27 319.06 349.57 317.61 346.55 C316.91 344.10 316.65 340.66 319.08 339.06"
       id="p32" />
    <path
       d="M336.81 338.13 C339.65 338.22 342.77 338.18 344.70 340.71 C342.55 340.25 340.44 339.61 338.31 339.11 C338.26 340.14 338.18 342.21 338.14 343.24 C339.08 343.21 340.97 343.16 341.92 343.13 L341.74 341.44 C342.42 341.95 343.09 342.46 343.78 342.97 C343.16 343.39 341.94 344.22 341.32 344.64 C342.48 346.09 343.62 347.57 344.75 349.05 C344.25 348.97 343.26 348.80 342.77 348.72 C341.79 347.34 340.82 345.97 339.88 344.58 C339.45 344.50 338.59 344.35 338.16 344.28 C338.16 345.85 338.17 347.42 338.18 348.99 L337.11 349.01 C337.32 345.38 337.13 341.74 336.81 338.13"
       id="p33" />
    <path
       d="M356.24 338.32 C358.22 338.30 360.21 338.26 362.20 338.17 C362.34 338.47 362.61 339.09 362.74 339.40 C360.92 339.41 359.09 339.42 357.27 339.45 C357.33 340.51 357.39 341.57 357.45 342.64 C359.28 342.84 361.17 342.91 362.90 343.63 C361.07 343.82 359.25 343.92 357.42 343.93 C357.40 344.84 357.38 346.65 357.36 347.55 C359.52 347.66 361.69 347.69 363.83 348.03 C361.45 349.14 358.79 348.85 356.25 348.95 C356.28 345.41 356.30 341.86 356.24 338.32"
       id="p34" />
    <path
       d="M378.72 337.70 C380.46 341.62 382.37 345.51 383.43 349.69 C382.17 348.60 381.41 347.13 380.69 345.68 C379.28 345.62 377.88 345.57 376.48 345.53 C376.05 346.58 375.63 347.64 375.21 348.70 C374.84 348.80 374.08 349.01 373.70 349.12 C374.64 346.90 375.59 344.67 376.07 342.30 C376.95 344.10 378.46 344.91 380.51 344.66 C379.90 343.17 379.27 341.70 378.62 340.23 L377.90 342.91 C377.51 342.20 377.13 341.50 376.76 340.80 C377.25 340.03 378.23 338.48 378.72 337.70"
       id="p35" />
    <path
       d="M392.15 338.59 C395.14 338.20 398.17 338.34 401.18 338.18 C401.33 338.47 401.63 339.05 401.77 339.34 C400.44 339.39 399.11 339.45 397.79 339.51 C397.80 342.68 397.80 345.85 397.79 349.02 C397.52 349.00 396.97 348.95 396.70 348.93 C396.71 345.83 396.70 342.73 396.77 339.63 C395.19 339.38 393.59 339.32 392.15 338.59"
       id="p36" />
    <path
       d="M413.57 349.81 C413.34 345.66 412.56 341.22 414.05 337.23 C414.28 341.37 415.10 345.83 413.57 349.81"
       id="p37" />
    <path
       d="M425.82 337.35 C428.32 339.89 428.89 343.58 430.48 346.66 C431.98 343.57 432.37 339.77 434.99 337.33 C433.93 341.58 432.21 345.65 430.31 349.59 C428.66 345.57 426.87 341.58 425.82 337.35"
       id="p38" />
    <path
       d="M446.69 338.21 C448.81 338.27 450.94 338.29 453.08 338.27 C453.08 338.56 453.09 339.12 453.09 339.41 C451.25 339.41 449.42 339.42 447.59 339.46 C447.69 340.23 447.90 341.77 448.00 342.54 C449.78 342.89 451.58 342.97 453.37 343.35 C451.65 343.70 449.91 343.95 448.16 344.09 C447.98 345.23 447.80 346.37 447.62 347.52 C449.80 347.65 451.98 347.70 454.17 348.01 C451.87 349.27 449.21 348.80 446.71 348.90 C446.71 345.33 446.72 341.77 446.69 338.21"
       id="p39" />
  </defs>
  <g
     stroke-width="10pt"
     id="g5787">
    <use
       stroke="#fff"
       xlink:href="#p1"
       id="use5709" />
    <use
       stroke="#000"
       xlink:href="#p2"
       id="use5711" />
    <use
       stroke="#ed1c24"
       xlink:href="#p3"
       id="use5713" />
    <use
       stroke="#000"
       xlink:href="#p4"
       id="use5715" />
    <use
       stroke="#000"
       xlink:href="#p5"
       id="use5717" />
    <use
       stroke="#000"
       xlink:href="#p6"
       id="use5719" />
    <use
       stroke="#000"
       xlink:href="#p7"
       id="use5721" />
    <use
       stroke="#000"
       xlink:href="#p8"
       id="use5723" />
    <use
       stroke="#ed1c24"
       xlink:href="#p9"
       id="use5725" />
    <use
       stroke="#ed1c24"
       xlink:href="#p10"
       id="use5727" />
    <use
       stroke="#000"
       xlink:href="#p11"
       id="use5729" />
    <use
       stroke="#000"
       xlink:href="#p12"
       id="use5731" />
    <use
       stroke="#000"
       xlink:href="#p13"
       id="use5733" />
    <use
       stroke="#ed1c24"
       xlink:href="#p14"
       id="use5735" />
    <use
       stroke="#ed1c24"
       xlink:href="#p15"
       id="use5737" />
    <use
       stroke="#ed1c24"
       xlink:href="#p16"
       id="use5739" />
    <use
       stroke="#ed1c24"
       xlink:href="#p17"
       id="use5741" />
    <use
       stroke="#fff"
       xlink:href="#p18"
       id="use5743" />
    <use
       stroke="#fff"
       xlink:href="#p19"
       id="use5745" />
    <use
       stroke="#fff"
       xlink:href="#p20"
       id="use5747" />
    <use
       stroke="#fff"
       xlink:href="#p21"
       id="use5749" />
    <use
       stroke="#fff"
       xlink:href="#p22"
       id="use5751" />
    <use
       stroke="#fff"
       xlink:href="#p23"
       id="use5753" />
    <use
       stroke="#000"
       xlink:href="#p24"
       id="use5755" />
    <use
       stroke="#000"
       xlink:href="#p25"
       id="use5757" />
    <use
       stroke="#000"
       xlink:href="#p26"
       id="use5759" />
    <use
       stroke="#000"
       xlink:href="#p27"
       id="use5761" />
    <use
       stroke="#000"
       xlink:href="#p28"
       id="use5763" />
    <use
       stroke="#000"
       xlink:href="#p29"
       id="use5765" />
    <use
       stroke="#000"
       xlink:href="#p30"
       id="use5767" />
    <use
       stroke="#000"
       xlink:href="#p31"
       id="use5769" />
    <use
       stroke="#000"
       xlink:href="#p32"
       id="use5771" />
    <use
       stroke="#000"
       xlink:href="#p33"
       id="use5773" />
    <use
       stroke="#000"
       xlink:href="#p34"
       id="use5775" />
    <use
       stroke="#000"
       xlink:href="#p35"
       id="use5777" />
    <use
       stroke="#000"
       xlink:href="#p36"
       id="use5779" />
    <use
       stroke="#000"
       xlink:href="#p37"
       id="use5781" />
    <use
       stroke="#000"
       xlink:href="#p38"
       id="use5783" />
    <use
       stroke="#000"
       xlink:href="#p39"
       id="use5785" />
  </g>
  <g
     id="g5867">
    <use
       xlink:href="#p1"
       fill="#fff"
       id="use5789" />
    <use
       xlink:href="#p2"
       fill="#000"
       id="use5791"
       style="stroke:#000000;stroke-opacity:1;fill:none" />
    <use
       xlink:href="#p3"
       fill="#ed1c24"
       id="use5793"
       style="fill:none;stroke:#000000;stroke-opacity:1" />
    <use
       xlink:href="#p4"
       fill="#000"
       id="use5795"
       style="fill:none;stroke:#000000;stroke-opacity:1" />
    <use
       xlink:href="#p5"
       fill="#000"
       id="use5797"
       style="stroke:#000000;stroke-opacity:1;fill:none" />
    <use
       xlink:href="#p6"
       fill="#000"
       id="use5799" />
    <use
       xlink:href="#p7"
       fill="#000"
       id="use5801" />
    <use
       xlink:href="#p8"
       fill="#000"
       id="use5803" />
    <use
       xlink:href="#p9"
       fill="#ed1c24"
       id="use5805" />
    <use
       xlink:href="#p10"
       fill="#ed1c24"
       id="use5807" />
    <use
       xlink:href="#p11"
       fill="#000"
       id="use5809"
       style="stroke:#000000;stroke-opacity:1;fill:none" />
    <use
       xlink:href="#p12"
       fill="#000"
       id="use5811" />
    <use
       xlink:href="#p13"
       fill="#000"
       id="use5813" />
    <use
       xlink:href="#p14"
       fill="#ed1c24"
       id="use5815" />
    <use
       xlink:href="#p15"
       fill="#ed1c24"
       id="use5817" />
    <use
       xlink:href="#p16"
       fill="#ed1c24"
       id="use5819" />
    <use
       xlink:href="#p17"
       fill="#ed1c24"
       id="use5821" />
    <use
       xlink:href="#p18"
       fill="#fff"
       id="use5823" />
    <use
       xlink:href="#p19"
       fill="#fff"
       id="use5825" />
    <use
       xlink:href="#p20"
       fill="#fff"
       id="use5827" />
    <use
       xlink:href="#p21"
       fill="#fff"
       id="use5829" />
    <use
       xlink:href="#p22"
       fill="#fff"
       id="use5831" />
    <use
       xlink:href="#p23"
       fill="#fff"
       id="use5833" />
    <use
       xlink:href="#p24"
       fill="#000"
       id="use5835" />
    <use
       xlink:href="#p25"
       fill="#000"
       id="use5837" />
    <use
       xlink:href="#p26"
       fill="#000"
       id="use5839" />
    <use
       xlink:href="#p27"
       fill="#000"
       id="use5841" />
    <use
       xlink:href="#p28"
       fill="#000"
       id="use5843" />
    <use
       xlink:href="#p29"
       fill="#000"
       id="use5845" />
    <use
       xlink:href="#p30"
       fill="#000"
       id="use5847" />
    <use
       xlink:href="#p31"
       fill="#000"
       id="use5849" />
    <use
       xlink:href="#p32"
       fill="#000"
       id="use5851" />
    <use
       xlink:href="#p33"
       fill="#000"
       id="use5853" />
    <use
       xlink:href="#p34"
       fill="#000"
       id="use5855" />
    <use
       xlink:href="#p35"
       fill="#000"
       id="use5857" />
    <use
       xlink:href="#p36"
       fill="#000"
       id="use5859" />
    <use
       xlink:href="#p37"
       fill="#000"
       id="use5861" />
    <use
       xlink:href="#p38"
       fill="#000"
       id="use5863" />
    <use
       xlink:href="#p39"
       fill="#000"
       id="use5865" />
  </g>
</svg>
