<?xml version="1.0" encoding="utf-8"?>
<!-- Generator: Adobe Illustrator 21.1.0, SVG Export Plug-In . SVG Version: 6.00 Build 0)  -->
<svg version="1.1" id="flat_x5F_fish" xmlns="http://www.w3.org/2000/svg" xmlns:xlink="http://www.w3.org/1999/xlink" x="0px"
	 y="0px" viewBox="0 0 792 612" style="enable-background:new 0 0 792 612;" xml:space="preserve">
<style type="text/css">
	.st0{fill:none;stroke:#000000;stroke-miterlimit:10;}
	.st1{fill:none;stroke:#000000;stroke-width:3;stroke-linecap:round;stroke-miterlimit:10;}
	.st2{stroke:#000000;stroke-miterlimit:10;}
	.st3{stroke:#000000;stroke-width:0.75;stroke-miterlimit:10;}
	.st4{fill:none;stroke:#000000;stroke-width:0.75;stroke-miterlimit:10;}
	.st5{fill:none;stroke:#000000;stroke-width:1.25;stroke-miterlimit:10;}
	.st6{stroke:#000000;stroke-width:1.25;stroke-miterlimit:10;}
	.st7{stroke:#000000;stroke-width:0.25;stroke-miterlimit:10;}
	.st8{fill:none;stroke:#000000;stroke-width:0.5;stroke-miterlimit:10;}
	.st9{stroke:#000000;stroke-width:0.5;stroke-miterlimit:10;}
	.st10{fill:none;stroke:#000000;stroke-width:4;stroke-linecap:round;stroke-linejoin:round;stroke-miterlimit:10;}
	.st11{fill:none;stroke:#000000;stroke-linecap:round;stroke-miterlimit:10;}
</style>
<g id="fish">
	<path class="st0" d="M421.7,193.2c5.8,2.1,9.1,2.4,11,2.2c0.4-0.1,1.8-0.3,3.5,0c1,0.2,2,0.5,3.8,1.3c3.5,1.5,12.2,3.5,27,7.5
		s25.7,6.7,44.3,13.8c18.7,7.2,33.8,13,35,13.8c1.2,0.8,7.3,1.2,13.7,1.8c6.3,0.7,9.2,1.7,14.7,2.7s18,1.7,24.8,2
		c6.8,0.3,12.3-0.2,18.3-0.2s19.2-5.3,19.2-5.3s0,0-1.5,3.5s1,5.3,11.3,5.7c10.3,0.3,9.8,3.2,11.8,11c2,7.8-4.3,22.3-8,31.8
		c-3.7,9.5,1.2,14.5,2.8,17s-1.3,6-10,3.2s-8.5-3.2-22.3-6.2c-13.8-3-21.8-0.2-26.3,0c-4.5,0.2-18.3,3-21.8,3.2s-6.3,1.2-17.5,4
		s-12.3,3.2-15.5,3.3c-3.2,0.2-7.5,1.7-9,1.7s-4.3,1.7-10,3.3c-5.7,1.7-6.5,3.2-10.8,5.5c-4.3,2.3-15.2,5.5-19,6.8
		c-3.8,1.3-11.2,4.3-17.8,8c-6.7,3.7-5.7,4.7-6.7,5c-1,0.3-5.5-0.5-8,0.2c-2.5,0.7-4.2,0.3-8.7,0.2s-5.7,0.3-7.3,1
		c-1.7,0.7-3.7,0-7,0.7c-3.3,0.7-6,3.2-9.3,3.5c-3.3,0.3-12,1.8-21,2.2c-9,0.3-13.8,1-25.8,2s-27.5,1.2-39.2,1.2
		c-11.7,0-17,2.7-20.2,2c-3.2-0.7-14.2-1.8-26.8-2.8c-12.7-1-22-1-32.5,0c-10.5,1-12.7,5.5-13.3,4.5s-4.7-1.3-7-1
		c-2.3,0.3-3.5,0-6.8,0c-3.3,0-13.2-1.2-21-1.5c-7.8-0.3-23.2-3.5-25.2-3.5s-15-2.8-17.2-3.3c-2.2-0.5-6.8-1.3-8.5-1.3
		c-1.7,0-9.5-2.2-12-3s-6.5-1.5-7.8-1.5s-12-3.7-12.8-4.2c-0.8-0.5-4.5-0.7-6.7-0.8s-12.7-5.5-13.3-5.5c-0.7,0-13.2-6.2-18.3-8.2
		c-5.2-2-29.2-10.5-29.2-10.5s-12.5-5.3-13.7-5.5c-1.2-0.2-19-9.6-21.7-11.8c-2.4-2-2.2-2.7-2.2-2.7s-1.3-5.5-1.3-6.8
		s2.7-1.8,2.7-1.8h12.8c0,0-9.2-10.3-11.7-13.5c-2.5-3.2,0-4.7,0-4.7l6.8-5.3l4-2.5l5.3-3.2l9.3-4.5l10.7-4.8
		c6.9-2.4,13.8-4.8,20.7-7.2c6.8-1.9,14.2-4.4,22-7.5c7.4-2.9,14-6.1,20-9.2c6.4-3.1,12.9-6.2,19.5-9.3c10.2-4.8,20.3-9.3,30.2-13.7
		c4.5-2,5.8-2.4,9.9-3.9c4.2-1.6,3.9-1.6,6.4-2.6c2.9-1.1,4.1-1.3,11.3-3.4c0.7-0.2,0,0,6-1.8c7.7-2.2,7.5-2.2,8.2-2.4
		c3.8-1.3,6-1.9,6-1.9l1.5-0.3c0,0,13.8-0.9,15.7-0.9c1.8-0.1,11.3-0.1,13.8,0s13,0.5,14.1,0.6c1.1,0.1,13.3,1.1,14.2,1.2
		c0.8,0.1,12.5,1,13.7,1.1c1.2,0.1,13.5,1.1,16.3,1.3c2.8,0.2,16.2,1.3,19.1,1.6s11.6,1.2,13.4,1.4s14.8,1.6,16.1,1.7
		c1.2,0.1,13.5,1.5,17.7,1.9c4.2,0.5,8.1,0.9,9.6,1c1.5,0.2,5.1,0.7,6.8,1c1.7,0.2,7.2,0.8,9.3,1c2.1,0.2,6.6,0.5,8.9,0.7
		C415.5,193.4,421.7,193.2,421.7,193.2l2.6,0.9L421.7,193.2"/>
	<path class="st1" d="M186.1,226.8c0,0,33.4-1.8,51.9-6.3s54.6-5,114.3,0s50.9,3.5,68,7.2s43.6,12.3,63.1,14.8s44,8,68.3,12.5
		s49.8,7,68.8,8.5c19,1.5,25.5,3,25.5,3"/>
	<g id="dorsal_x5F_fins_2_">
		<path class="st0" d="M421.7,193.2c0,0-4.3-9,2.6-12.1c-12.8-1.3-3.9-14.5-3.9-14.5s-9.7,2.2-3.2-11.2c-13.5,6-8.2-11.5-8.2-11.5
			c-4.2,2.1-14.1,6.4-8.6-7.2c-8.2,3.8-17.4,3.1-14.5-10.2c-10.9,4.1-15.8,0.3-12.9-11.6c-10,7.5-16.9,0.3-12.8-10.9
			c-15.1,9.1-22.9,5.3-21.1-11.1c-13,13.3-23.4,7.5-20.2-10c-10.5,11.3-25.6,10.3-26.9-5c-14.4,17.1-40.5,24.9-30.6,2.8
			c-7.3,8.3-13.2,20.7-18.4,34.5c-3.6,2-5.1-3.1-5.1-3.1c-2.5-0.2-10.9,16.5-11.9,31.6c-1.8,11.5-0.8,35.8-1.3,35.9
			c-0.5,0.1,15.7-2,42.5-0.4l66.8,5.5l58.3,6.3C391.9,191.5,420.1,194.3,421.7,193.2z"/>
		<path class="st2" d="M261.2,80.7c-24.7,34.5-23.1,89.3-24.6,97.9l-3.2,0.2c0,0,3.8-53.3,9.3-63.6l4-10l6.7-13.6l4.9-7.6
			L261.2,80.7z"/>
		<path class="st2" d="M244.3,178.4c0,0,8.6-62.2,47.5-100.6C262,118.4,255,148.6,249,178.4H244.3z"/>
		<path class="st2" d="M260.2,178.8c10.4-45.4,33.8-71.8,58.6-96C292.1,109,273.9,141.1,264,179L260.2,178.8z"/>
		<path class="st2" d="M273.8,179.7c18.4-38.4,39.6-69,65.2-86.9c-24.5,19.9-44.6,50.4-60.3,87.3L273.8,179.7z"/>
		<path class="st2" d="M288.7,180.9c18.9-31.6,41.9-58.2,71.4-77c-27.7,20.1-49.6,46.4-67.1,77.4L288.7,180.9z"/>
		<path class="st2" d="M301.8,182c19.9-25.3,43.7-47.6,71.1-67.2c-26.2,20.5-48.7,42.9-66.5,67.6L301.8,182z"/>
		<path class="st2" d="M318.8,183.4c20-21.9,42.6-42,67.1-57c-24,17.2-45.2,37.1-62.5,57.4L318.8,183.4z"/>
		<path class="st2" d="M333.8,184.7c23.6-21.9,46.1-39.3,66.5-48.1c-18.4,10.2-34.3,23.2-61.3,48.6L333.8,184.7z"/>
		<path class="st2" d="M348.1,186.2c22-19.3,42-32.8,60.8-42.4c-18,10.7-38.1,26-54.9,43L348.1,186.2z"/>
		<path class="st2" d="M364.5,188c19.9-15,38.3-27.5,52.7-32.7c-14,6.8-30.1,18.7-47.3,33.2L364.5,188z"/>
		<path class="st2" d="M382.1,189.9c15.1-10.8,29.6-20.8,38.2-23.3c-9,3.9-21,13.2-33.6,23.8L382.1,189.9z"/>
		<path class="st2" d="M397.2,191.8c9.2-5.4,18.3-9.8,27.1-10.7c-7.3,1.7-14.3,5.5-21.1,11.4L397.2,191.8z"/>
		<path class="st0" d="M429.6,195.3c0,0,32.9-18.7,34.4-19.7s0.9,0.9,0.9,0.9s1.9-1.2,4.8-2.6s11-8.6,17.5-11.2s9.1-4.3,13.8-4.1
			c4.1-0.5,2.1,1.1,1.1,2.1c0,0,2.4,0.4,3.1,0.8s4.4,2.6,5,3.1s1.9,1.4,2.4,2.1s-2.4,1.8-1.9,3.2s1.1-0.5,3.4,1s2.2,3.1,3.5,4
			s2.6,1.6,3.6,3.7c1,2.1,0.4,2.9,2.9,4.1s3.8,3.1,4.5,4.2s1.6,2.8,3.2,4.3s4.5,1.6,6,3.2s1.1,2.9,3.6,4.1s3.2,3.1,6.4,4.2
			s3.9,2.1,5.5,3.6s2.6,2.8,2.5,5.1s-0.6,3-1.6,4.1s-1.8,2.1-1.8,2.1s3.6,0.2,5,0s2.9-0.2,2.4,0.8s-8.5,6.5-9.4,7.6
			s-1.5,2.2-2.6,2.8s-1.4,0.1-2,1.2s-0.6,1.1-0.6,1.1s-14-5.6-17.9-7.1c-3.9-1.5-22.8-8.7-26.8-10.1c-4-1.4-18.2-5.7-22.3-6.9
			c-4.1-1.1-19.3-5.2-22.3-6c-3-0.8-9.9-2.6-11.7-3.1c-1.7-0.5-5.2-2-6.6-2.4c-1.4-0.4-4.2-0.3-5.7-0.3
			C430.4,195.4,429.6,195.3,429.6,195.3z"/>
		<line class="st0" x1="435.5" y1="195.5" x2="464.9" y2="176.5"/>
		<path class="st3" d="M440.7,196.8c0,0,11.4-7.5,17.3-12c6.2-4.7,30.8-21.8,35-22.4c4-1.2,10.6-2.5,9-1.9c-2.5,0.5-5.3,1.3-8.2,2.4
			c-5.1,1.8-11.7,6.3-11.7,6.3s-10,6.8-14.5,10.2l-14.9,11.3c0,0-6.8,5.5-8.4,7.2L440.7,196.8z"/>
		<path class="st3" d="M448.4,199.2c0,0,8.9-6.4,14.4-11.2s21.5-19.2,28.4-21.9c6.9-2.8,12.8-4.8,14-4.7c1.9-0.9-11.3,4.5-14.7,6.3
			c-3.4,1.8-19,13.8-22.3,17.4c-3.3,3.6-15.7,14.4-17,14.9L448.4,199.2z"/>
		<path class="st3" d="M455.2,201c0,0,5.4-3.4,12.9-10.4s12.2-12.8,22.4-18.8c10.2-5.9,12.6-7.5,17.3-8.9c2.1-0.7-16.3,9.7-16.3,9.7
			s-9.9,6.6-16.1,13.3c-4.4,4.6-8.6,10.1-17,15.9L455.2,201z"/>
		<path class="st3" d="M462.5,203c0,0,7-3,11-6.7s11.4-10.4,16.9-14.4s18.2-11.1,20.2-12.1s-10.2,7-10.2,7c2.2-1.3,4.9-2.6,8.1-3.8
			c2.2-0.8,4.3-1.3,6.2-1.7c-2.8,0.8-6,1.9-9.6,3.7c-3,1.5-5.5,3.1-7.5,4.6c-7.4,5.7-13,9.5-17.9,14.4c-3.8,3.8-8.1,6.9-12,10.4
			L462.5,203z"/>
		<path class="st3" d="M479.4,207.5c0,0,5.6,0,11.8-5.6s15.5-12.4,21.1-15.1s10.8-4.6,10.8-4.6l0.8,0.5c0,0-1.9,0.5-6.6,2.8
			s-7.1,4.1-7.1,4.1s2-1.1,8.2-2.7s8.5-1.9,8.5-1.9l0.9,1.1c-0.4,0-1,0-1.6,0c-3.4,0.1-6.1,0.9-10.3,2.5c-4.5,1.7-6.7,2.6-9,3.8
			c-4.7,2.4-8.3,5.5-15.5,11.5c0,0-6.4,5.4-6.4,5.4l0,0L479.4,207.5z"/>
		<path class="st3" d="M475.4,206.4l-4.7-1.3c0,0,7.1-4.5,14.9-10.3c7.9-5.8,18.5-12.7,23.6-15.2c5.1-2.6,9.2-4.2,9.2-4.2l0.7,0.5
			c-1.9,1.2-3.5,2.1-4.6,2.6c-1.6,0.8-2.7,1.3-6,3.4c0,0-0.5,0.4-0.5,0.5c0.1,0.3,4.7-1.3,8.3-1.8c4.2-0.6,5.4-0.6,5.4-0.6v1.1
			c0,0-9.8,1.3-15.6,3.4s-11.4,6.9-14.1,8.9c-2.8,2.1-7,5.9-9.6,7.8C479.8,203.1,475.4,206.4,475.4,206.4L475.4,206.4"/>
		<path class="st3" d="M489.3,210.5c0,0,1.5,2,9.7-4s8.9-8,16.4-11.6c7.5-3.6,9.4-4,11.5-4.4s3.6-0.6,3.6-0.6l0.5,0.6
			c0,0-5.9,1.1-8.3,2s5.1-0.1,7.1,0s4.1-0.1,4.2,0c0.1,0.1,0.7,0.3,0.7,0.3s-6.1,0-11.7,1.4s-6.1,1.5-10.1,4c-4,2.4-6,4.9-10.7,8.3
			c-4.8,3.4-6.1,6.1-6.1,6.1L489.3,210.5z"/>
		<path class="st3" d="M499,213.5c0,0,4,0.1,10.2-4.3s10.5-9.7,17.1-11.1c6.6-1.5,6.1-1.1,9.4-1.5s3.2-0.4,3.2-0.4l0.7,1
			c0,0-8.3,0.4-9.5,0.9c-1.2,0.4,9.8-0.4,10.5,0c0.7,0.4,0.7,0.4,0.7,0.4s-3.8-1.4-11.2,0.8s-7.6,1.6-13.9,6.6s-8,5.6-10.1,7.2
			c-0.8,0.9-1.8,2.3-1.8,2.3L499,213.5z"/>
		<path class="st3" d="M506.5,216.2c0,0,0.8,1.6,7.2-2.6c6.3-4.2,11.9-8.3,18.2-10.2c5.1-1.3,9.1-2.3,11.2-2.2s2,0.1,2,0.1l0.9,0.6
			c0,0-4.4,0.1-8.3,1.1c-3.9,1-2.9,1-2.9,1s5.1-0.6,7.9-0.8s5.1-0.4,5.1-0.4l0.6,0.2c0,0-8,0.5-11.5,1.4s-4.4,1.1-10.3,3.6
			c-4.8,2.6-12.2,7.4-13.2,8.5c-0.9,1.1-1.3,1.8-1.3,1.8L506.5,216.2z"/>
		<path class="st3" d="M514.7,219.3c0,0,2-0.3,6-2.1c7.3-3.3,10.2-6.7,17.4-9.6c1.7-0.7,3.3-1.2,5.1-1.6c0.9-0.2,3.1-0.7,5.8-0.7
			c0.9,0,3.1,0,3.1,0l0,0l0.5,0.5c0,0-4-0.1-9.4,1.4s-5.5,2-5.5,2s9-1.7,12.4-2.1c3.4-0.4,3.4-0.4,3.4-0.4l0.7,0.7
			c0,0-6.7,0-16.9,3.1c-7.7,2.8-6.5,3.6-11.8,6.4c-3.7,2.4-5.9,4.3-5.9,4.3L514.7,219.3z"/>
		<path class="st3" d="M522.8,222.4c0,0,3.9,0.8,9.6-2.8c5.8-3.7,10.7-6.9,14.9-7.8s8.3-1.7,8.3-1.7v0.8c0,0-5.8,0.9-9.4,2.4
			s-8.1,4.9-10.7,6.2c-2.6,1.3-6.5,3.2-6.8,3.9s-0.9,1-0.9,1L522.8,222.4z"/>
		<path class="st3" d="M530.7,225.5c0,0,1.7,1.7,8-2.1c6.3-3.8,7.8-6.4,11.2-8c3.4-1.6,5.6-2.1,5.6-2.1l-0.7,1.5
			c0,0-0.6-1.6-3.7,0.6c-3.1,2.2-7.6,6.1-9,7.5c-1.4,1.3-4.9,3.2-5.2,3.8c-0.3,0.5-0.5,1.2-0.5,1.2L530.7,225.5z"/>
		<path class="st3" d="M538.3,228.4c0,0,1.9,0.3,3.5-1.1c1.6-1.4,5.6-5,7.4-6.1s1.9-1.8,5-2.7c3.1-0.8,3.1-0.8,3.1-0.8l1.5-0.1
			c0,0-2.6,0.1-7.2,3.6c-4.7,3.6-8.1,6.6-8.5,7.2c-0.4,0.6-0.5,1.8-0.5,1.8L538.3,228.4z"/>
		<path class="st2" d="M238.2,111.1l-7.3,15.3c-4.4,7.6-3.8,43.1-3.3,52.4l-3.2,0.2c0,0,0-18.5,0.6-28.2l4-22.6
			C229.1,128.1,235,114.8,238.2,111.1z"/>
	</g>
	<path class="st0" d="M247.5,354.2c0,0,8.2,16.8,10.7,25.1c2.5,8.2,6,16.2,12,24.8s9,12,10,13.8s0.8,2.2,3.5,2.5s3.8-1.2,4.5,0
		s3.2,5,8,7.5s9,2.2,11.2,2.8s4.2,2,5.5,0s1.2-2,1.2-2s-0.1-0.3,0.2-5.5c0.3-5.1,1.2-5.5,1.5-8.5s1.2-7.2,2-8.8s4-7.1,4.8-12.9
		s-1-6.3,0-11.3s2.2-10.2,2.8-13s-0.5-2,0-4.8s-1.2-5.8-1.8-7c-0.2-0.5-0.7-1.3-1.1-2.1c-0.2-0.3-0.3-0.5-0.5-0.8
		c-0.5-0.7-0.9-1.3-0.9-1.3s-6.2-0.9-9.6-1.2c-3.3-0.4-16.9-1.6-16.9-1.6s-11.5-0.7-13-0.8c-1.5,0-8,0-8.8,0s-8.8,0.4-8.8,0.4
		l-6.2,0.7c0,0-5.9,1.8-6.9,2.4C249.9,353,247.5,354.2,247.5,354.2z"/>
	<path class="st0" d="M318.2,405.3c0,0,2.5,2.2,4.6,3.2c2.1,1,3.1,1,4.3,1.2s1.2,0.2,1.2,0.2s-1.4-1.2-2.8-3.8
		c-1.4-2.7-3.6-5.4-4.2-5.8s-0.6-0.4-0.6-0.4l-0.9,2l-1.3,2.7L318.2,405.3z"/>
	<path class="st0" d="M321.4,398.4c0,0,3.1,2.8,5.5,4.8c2.3,2,2.7,2.1,3.7,2.2s-2-1.7-4.9-5.6s-3.5-4-3.5-4L321.4,398.4z"/>
	<path class="st0" d="M322.9,390.7c0,0,0.9,1.4,3.5,3c2.6,1.6,2.3,0.6,3.8,2.2s3.1,2.3,3.1,2.3s-1.2-1.2-3.5-4.4s-1.8-3.4-3.4-4.8
		c-1.7-1.4-2.4-2.2-2.4-2.9s0.1-1.8-0.7-2.5c-0.8-0.7-0.8-0.7-0.8-0.7l-0.1,0.5c0,0-0.1,1.4,0.1,3.2c0.2,1.8,0.3,3,0.3,3.2
		C322.9,390,322.9,390.7,322.9,390.7z"/>
	<path class="st0" d="M323.3,378.7c0,0,1.8,2,2.7,2.8s5.1,4,6.1,4.8s2.5,2.6,3.6,3.7c1.1,1.1,1.2,1.6,1.2,1.6s-3.7-3.5-7.2-5.2
		c-3.6-1.8-5.2-2.9-5.2-2.9l-1.7-1.8L323.3,378.7z"/>
	<path class="st0" d="M323.8,376.4c0,0,1.7,2.3,4.1,2.7c2.4,0.4,3.9,0.9,6,2.1c2.1,1.2,4.2,1.9,5.2,1.9s1,0,1,0s-1-0.5-1-1.7
		s0.3-1.5,0-2.8c-0.3-1.3-2.4-4-4.1-5.4c-1.7-1.3-2.2-1.5-2.3-2.1c-0.1-0.6,0.2-1,0.2-1s-0.8-0.6,2.3,0.6c3.2,1.2,5.2,1.9,5.8,2.6
		c0.6,0.7,0.6,0.7,0.6,0.7s-1.5-0.8-1.7-3.1c-0.2-2.2-0.1-1.4,0.2-1.9s0.5-0.8,0.1-1.8c-0.4-1.1-0.4-1.2-0.6-2s0-0.6-0.9-1.4
		c-0.9-0.8-1-0.7-0.9-1.4c0.1-0.8,0-0.8-0.8-1.7s-0.9-0.7-1-1.5c-0.1-0.8,0.8-0.8-0.8-1.2c-1.6-0.5-2.5-1.2-3.8-1.6
		c-1.2-0.4-2.6-0.8-4.3-1.2c-1.8-0.4-2.3-1.1-3.2-1.4c-0.9-0.3-1.4-0.1-1.4-0.1s0.3,0.9,1.3,3.1s1.7,4.1,1.8,5.1
		c0.1,1-0.1,1.9-0.1,2.6c0,0.7,0.5,2.3,0,4.5s-0.8,3.9-1.1,5C324.1,375,323.8,376.4,323.8,376.4z"/>
	<path class="st0" d="M286.6,419.9l1.3-0.1c0,0,0.3,0.3,0,0c-1.8-1.9-9-10.1-16-26.2c-8-18.5-7.5-15.4-11-22.6s-8.3-15.3-9.4-16
		s-2.5-0.8-4-0.8"/>
	<path class="st4" d="M323.3,355.8c0,0,11.1,3.7,12.9,4.2"/>
	<path class="st4" d="M324.3,357.9c0,0,10.8,2.8,13.4,4.5"/>
	<path class="st4" d="M325.1,360.2c0,0,8.4,1.6,14.4,5.1"/>
	<path class="st4" d="M325.5,362.7c0,0,6.8,0.3,14.8,5.7"/>
	<path class="st4" d="M325.4,364.4c0,0,10.3,2.5,14.9,8.3"/>
	<path class="st4" d="M325.6,366.6c0,0,6.1,1.4,7.2,3.7"/>
	<path class="st4" d="M325.5,368.5c0,0,8,3,10,5.3"/>
	<path class="st4" d="M325.1,370.4c0,0,11.3,4.4,13.6,7.6"/>
	<path class="st4" d="M324.6,372.7c0,0,13,5.2,14.6,7.5"/>
	<path class="st4" d="M324.4,373.9c0,0,9.3,4.3,11.2,5.5s2.6,3.2,4.5,3.8"/>
	<path class="st4" d="M319.6,402.7c0,0,2.5,1.4,7.3,5.5"/>
	<path class="st4" d="M322.8,387.7c0,0,4.9,4.6,7.9,8.2"/>
	<path class="st5" d="M287,349.3c0,0,20.9,3.9,21.9,4c7.4,0.8,14.4,2.4,14.8,3.5"/>
	<path class="st3" d="M276.5,349c0,0,14.1,5.6,23.8,6.8c9.7,1.3,21.2,3.8,24.5,3.5l0.6,1.7c0,0-7.5-0.9-11.3-1.7s-4.3-1.1-4.3-1.1
		s12.7,4.1,15.8,4.9c0,0-0.3,1.6-0.1,2s-12.9-5.3-17.1-6.2s-20.3-3.8-25.8-6c-0.1-0.1-0.3-0.1-0.4-0.2c-5.3-2.1-10.6-3.8-11.8-3.8
		C269,349.1,276.5,349,276.5,349z"/>
	<path class="st2" d="M253.2,351.8c0,0,5.6-0.4,11.3,9.6s20.4,33.3,22.5,37.2c2,3.9,10,17.8,14.2,21.6c4.2,3.8,12.2,9.7,12.2,9.7
		l0.8-1.8c0,0-9.6-6.1-13-10.8c-6.8-9.2-18-28.2-18-28.2s17,23.9,19.6,26.5s11.6,10.7,11.6,10.7s0.2-1.5,0.2-2.4
		c0-0.9-10.3-8-17.7-19c-2.7-4-6.3-9.1-9.9-14.2c-7.1-10-14.2-19.6-14.2-19.6s5.5,5.6,13.4,15.9c7.4,9.6,16.2,21.9,18.2,23.9
		c2.6,2.6,10.3,9.8,10.3,9.8l0.3-1.8c0,0-12-12.9-16.5-18.9c-4.6-6.1-9.7-12.9-9.7-12.9s19.2,19.6,22.7,24c3.5,4.4,4.2,5.2,4.2,5.2
		l0.5-3.3c0,0-9.7-13.5-19.2-21.2s-13.6-12.9-17.7-17.6c-4.1-4.7-10-12.5-12.6-16.2s-7.7-7.1-8.5-7.4c-0.5-0.2-2.3,0.1-3.7,0.5
		L253.2,351.8z"/>
	<path class="st2" d="M322.8,392.8c-0.6-2.1-14.9-11.7-18-13.5c-3.5-2.1-11-7.3-11-7.3s8.5,4.5,13.7,6.7
		c5.1,2.2,15.5,12.7,15.3,10.2s-0.3-3.8-0.3-3.8c-4-3.8-10.2-6.6-23.5-13s-14.5-9.1-22.7-15.4s-10.7-7.4-11.6-7.4
		c-0.9,0-4.1,0.4-4.1,0.4s3.4-0.3,16.5,13.5s15.4,16.8,22,23.1s14.3,14.5,18.1,21.8c0,0,0.2-1.2,0.8-2.4s-16.3-18.4-20.7-23.3
		c-5.7-6.4-12.6-13.9-12.6-13.9s5.9,4.4,13.1,11.6c8.9,9,19.6,21.5,21.1,23.8c0,0,0.5-0.8,0.9-1.7s-11.3-13-14.5-17.1
		c0,0,12.3,11.2,13.3,12.5s2.4,1.7,2.2,2c-0.1,0.3,0.6-1.8,0.6-1.8s-10-10.4-15.1-15c-5.4-4.9-7.9-5.5-7.9-5.5s9.8,5.5,14.2,9.6
		s9.5,9,9.5,9L322.8,392.8z"/>
	<path class="st2" d="M283.8,420.2c0,0-12-18.2-14-22.1c-2-3.8-4.3-8.9-4.5-10.5c-0.2-2.1-1.8-2.6-1.8-2.6s4.6,7.1,6.7,11.3
		c2.1,4.2,8,13.3,9.6,15.6s5.2,8.2,5.2,8.2H283.8z"/>
	<path class="st2" d="M303,357.9c2.5,0.5,22.6,9.5,22.6,9.5l-0.3,2.2c0,0-0.9-1-3.9-2.6s-24.5-8.2-24.5-8.2s1.7,1.5,8.7,3.7
		s19.1,9.5,19.1,9.5l-0.7,3.9c0,0-14.8-10-14.6-9.6c2.2,3.5,13.8,11.8,13.8,11.8l-0.4,2.2c0,0-11.6-12.4-21.9-16.4
		S282.5,353,282.5,353s2.9,1.1,6.4,1.9c3.5,0.8,11.8,2.6,11.8,2.6L303,357.9z"/>
	<path class="st5" d="M324.6,358.7c0,0-7-2.5-10.6-3.4c-3.1-0.8-7.9-2.5-10-2.9"/>
	<path class="st6" d="M250.6,352.6c0,0,3.3,0.3,6.4,4.4c4.3,5.6,18.4,38,20.5,39.8c2.1,1.8,20.6,32.4,24.2,32.9
		c3.6,0.5,3.6,0.5,3.6,0.5s-13.3-15.8-18.3-22s-15.5-24.8-19.2-32.4s-8.4-17.2-10.4-19.5C255.2,354,250.6,352.6,250.6,352.6z"/>
	<path class="st7" d="M33,261c0,0,2.3,3.2,6.8,0.5s5.2-4.5,7.7-4.5s6.5-3.2,8.8-5.7c2.3-2.5,7.6-4.8,11.3-5.9
		c3.7-1.1,10.5-3.7,10.5-3.7l5.7-1.7l5.5-0.1l2.7,1.1c0,0,4.9,0.7,6.9-1.3c2-2,13.7-7.8,20.3-8.3c6.7-0.5,15.7-5.2,24.7-11.8
		s19-11.3,37.8-15s60.4-9.5,73.2-9s50.3-1.1,71.5,1c21.2,2,57.3,2.6,87.8,7.9s76.3,17.5,86,20.5c9.7,3,34.5,11.8,49,14.1
		c14.5,2.2,22.5,2.6,29.2,3.6c6.7,1,13.8,2.3,22,1.4s16.3-1.9,23.8-1.2c7.5,0.6,21.7-0.6,21.7-0.6l-4.5-0.5l-4.8-1.3l-1.6-2l0.6-2.7
		l1.2-2.9l-9.5,3.3c0,0-3.4,1.8-11.3,2c-7.9,0.2-22.3,0.3-31.9-0.8c-9.6-1.1-6.8-0.4-11.6-1.5c-4.8-1-8.7-1.9-13.5-2.4
		c-4.8-0.5-8.3-0.7-9.9-1s-3.2-1-6.2-2.1s-13-5.2-13-5.2s-21.8-8.4-24.5-9.3c-2.6-0.9-29.5-9.3-36.3-11.1c-6.8-1.8-20.4-5.4-23-6.1
		s-6.9-2.6-8.7-3c-1.8-0.4-4.6,0-7.1-0.3s-8.2-1.7-8.5-1.9c-0.3-0.3-3.1,0-3.3,0s-10.8-0.4-17.5-1.2c-6.7-0.8-10.2-1.4-12.4-1.6
		c-2.2-0.2-22.8-2.5-28-3c-5.2-0.6-13.2-1.4-15.1-1.6s-10-1.2-13-1.4c-2.9-0.2-17.3-1.4-20.5-1.7c-3.2-0.3-25.8-2.1-26.6-2.2
		c-0.8-0.1-12.6-1.1-16.4-1.3s-22.9-1.1-31.6-0.6c-8.6,0.5-13.2,0.8-13.2,0.8l-8.9,2.7c0,0-11.7,3.2-18.4,5.3
		c-6.6,2.1-13.5,4.8-15,5.4s-13.9,5.9-19,8.2c-5.1,2.3-22.8,10.5-22.8,10.5s-19,9.3-22,10.7c-3.1,1.4-14.5,6.7-23.5,9.6
		c-8.9,2.9-17.7,5.7-24.2,8c-6.6,2.3-11.7,4.2-19.2,7.9c-7.5,3.6-11,5.5-11,5.5s-1.9,1.1-3.1,1.8s-2,1.3-2,1.3l-1.4,1.9L33,261"/>
	<path class="st0" d="M203.8,293.5c-1.2,1.8-2.2,3.5-1.5,4.8s3,4.5,4,7.8s2.2,6,1.5,9s-1.5,5.5-2.8,6.5c-1.2,1,3,1.2,3,1.2
		s1.5,0.8,3.5,0s-2.8-2.8,4,0.3c6.8,3.2,57.8,19.4,68,20.9s21.5,1.8,25,1.5s6-0.2,6-2.2s-5-4.8-6.2-7.2s-0.8-1.5-3.8-4.5
		s-4.2-2-4.5-5s-0.5-5.7-3.5-7s-3.2-2-6-3.5s-18.2-10.5-40.5-14.8s-35.8-6-35.8-6s-3-2.2-5.8-4.2s-5-2.5-5.5-1.5
		S203.8,293.5,203.8,293.5z"/>
	<path class="st8" d="M216.1,297.6c0,0,41.4,6,59.6,11.3"/>
	<path class="st8" d="M304.8,345.6c-9.8-1.2-23.8-3.7-46.5-12.3s-41.7-13.8-41.7-13.8"/>
	<path class="st8" d="M218.2,318c0,0,27.7,8.9,40,13.6c12.3,4.8,39.6,13,50.3,13.9"/>
	<path class="st8" d="M219.3,316.2c0,0,36.8,11.4,46.2,15.5s37,12,46.9,13.4"/>
	<path class="st8" d="M220.1,314.7c0,0,27.4,7.7,43.4,14.3c16,6.7,43.3,14.5,50.9,15"/>
	<path class="st8" d="M220.7,313.4c0.5,0.2,35.3,10.1,48.6,16.2c13.7,6.2,37.9,13.1,45.2,13.7"/>
	<path class="st8" d="M221.5,311.6c0,0,30.2,9.1,46.4,15.7s36.2,13.9,46.2,14.8"/>
	<path class="st8" d="M221.9,309.5c0,0,32.7,10.3,48.2,16.9s37,14.1,42.9,14.5"/>
	<path class="st8" d="M221.5,307c0,0,38.6,12,48.9,16.8s33.8,14.1,40.6,15.3"/>
	<path class="st8" d="M220.2,304.2c0,0,44.6,14.7,54.6,19.5s28,11,33.4,12.4"/>
	<path class="st8" d="M219.4,302.5c0,0,37.9,11.6,53.5,18.2s28.8,11.7,33.5,12.6"/>
	<path class="st8" d="M218.4,301c0,0,45.5,13.9,55.6,18.6s26.2,10.6,30.5,11.9"/>
	<path class="st8" d="M217.3,299.2c0,0,58.2,9,65.7,12.9"/>
	<path class="st8" d="M221.5,302c0,0,56.6,6.9,66.3,12.6"/>
	<path class="st8" d="M227.6,303.9c0,0,58.9,8.3,64.2,12.9"/>
	<path class="st8" d="M233.4,305.7c0,0,55.9,9.4,59.6,11.9"/>
	<path class="st8" d="M243.5,308.9c0,0,46.5,7.6,52.4,10.4"/>
	<path class="st8" d="M255,312.7c0,0,35.6,5.8,44.2,9.6"/>
	<path class="st8" d="M264,315.7c0,0,29.6,5.4,35.8,8.5"/>
	<path class="st8" d="M274,319.6c0,0,21.8,4.2,25.9,6.1"/>
	<path class="st8" d="M281.7,323c0,0,16.7,4,18.6,4.9"/>
	<path class="st0" d="M214.2,295.2c0,0,9.7,11.3,7.2,16.4s-2.9,6.7-5.2,7.9s-4.6,1.8-4.6,1.8"/>
	<path class="st0" d="M466.7,339.7c0,0,1.2-1,7.1,3.8s5.6,4,8.1,5.9s2.2,3.2,8.1,8.6s1.1,2,11.5,9.8s14.2,11.5,21.8,15.2
		s5.6,3.1,8.8,4.4s3.1,0.9,7,1.2s2.9,0.1,5.4,2.2s6.1,2.9,7.4,2.4s0.8-1.6,1.6-3.2s1.8-1.8,1.5-4.4s0.5-0.5,0.9-3.1
		c0.4-3-0.8-2.6,0-5s0.8-0.6,1.1-3.8s-0.4-6.2,0-7.3s-0.2,0.9,0.1-2.2c0.3-3.1-0.6-2.5,0-5.5c0.6-3,1-2.5,0.6-6.1s0.3-3.9,0.1-6.1
		s0.4-0.2-0.1-2.2s1.8-1-0.2-4.7c-2-3.7-3.6-4.1-5.8-7.1s-3.1-5.9-8-9.8s-9.4-6.2-10-7.4s-2.2-4.4-1.8-4.5c0.4-0.1,0.4-0.6-4.1,1.1
		c-4.5,1.7-9.4,3.1-11.2,4.1c-1.8,1-5.1,3.3-7.5,4.3c-2.3,1-6.6,2.6-9.3,3.5c-2.7,0.9-8.1,2.6-9.3,3c-1.1,0.4-6,2.4-7,2.8
		c-1,0.4-4.1,1.8-7.1,3.4c-3,1.6-5.4,3-6.2,3.5C469.4,337.1,466.7,339.7,466.7,339.7z"/>
	<path class="st9" d="M505.5,321.8c0,0,8.4,2.5,19.2,12.3s13.6,11,16.1,13.5s7.5,7,10.9,10.9s5.2,5.9,5.2,6.5s0-3.2,0-3.2
		s-4.2-5.4-7.1-7.5c-1.2-0.9-1.9-1.8-1.9-1.8s8.3,6.1,8.8,7.3c0.5,1.1,0.5-2.5,0.5-2.5s-4.9-3.5-11.6-8.1s-15-11.6-19.6-15.5
		c-6.4-5.4-14.9-12.1-15.1-14.3c0-0.3-0.7,0.4-2,1C507.7,321.1,505.6,322,505.5,321.8C505.5,321.8,505.5,321.8,505.5,321.8z"/>
	<path class="st9" d="M512.4,318.6c0,0,3-0.3,9.8,4.4s11.3,8.2,13.8,10.7c2.4,2.4,9,7.8,11.1,10.5c2.1,2.8,10.8,11,10.6,11.6
		c-0.1,0.6,0-2.6,0-2.6s-5.5-5-7.4-7.4c-0.7-0.9-1.1-1-1.7-1.8c0,0,8.9,7.1,9,7.6s0-1.6,0-1.6s-5.2-4.2-6.7-5.3
		c-0.7-0.5-1.3-1.1-1.3-1.1s7.8,4.2,8.2,4.7c0.2,0.2,0.5-1.2,0.1-1.8c-0.6-0.9-4.2-1.1-10.1-5.6c-8.4-6.3-12.6-10-16.3-12.8
		c-3.7-2.8-7.2-6.4-9.8-8.3c-2.6-1.9-3-4.6-3.4-4.5C517.9,315.4,512.4,318.6,512.4,318.6z"/>
	<path class="st9" d="M519.4,314.8c0,0,5.7,2.7,12,7.9c6.3,5.2,13.6,11.8,17.4,15s8.8,6.5,8.8,6.5v-1c0,0-13.8-11.6-18.5-15.6
		s-15.6-11.8-15.9-12.3s-0.3-1.7-0.3-1.7L519.4,314.8z"/>
	<path class="st9" d="M524.8,313c0,0,5.9,2.7,12.2,9s14.2,13.8,16.4,15.5s4,2.1,4,2.1l-1.4-2.2c0,0-5.1-3.1-12.1-10.3
		s-10.6-10.4-12.4-11.7c-1.8-1.3-3.7-3.3-3.7-3.3L524.8,313z"/>
	<path class="st9" d="M504.3,322.3c0,0-0.9,1.4,6.7,7.6s11.9,9.2,19,14.4s14.1,10.6,16.4,12.9s10.4,10,10.4,10v1.3
		c0,0-9.9-9.4-11.2-10.4c-1.3-1-2.4-1.6-2.4-1.6s13.7,13.2,13.7,14c0,0.8,0,2.7,0,2.7s-9.8-11.5-11.6-13.2c-0.6-0.5-2-1.6-2-1.6
		s13.5,15.9,13.3,16.6s-0.5,1.4-0.5,1.4s-12.8-17.1-18.2-22.7s-9.1-8.4-14.5-12.1s-11.8-8.5-16.6-11.8s-8.6-5.4-9.3-5.2
		S504.3,322.3,504.3,322.3z"/>
	<path class="st9" d="M494.9,325.5c0,0,5.6,6.3,16.3,14.9s17.4,15.2,24.1,20.4c4.2,3.3,18.1,12.8,20.5,16.7c0,0-0.5,0.7-0.5,0.7
		c0,0-6.4-6-9.7-8.5c0,0,3.9,4.7,7,7.4s3.1,2.7,3.1,2.7l0.2,1.6c0,0-7-6.6-12.2-12c-0.5-0.5,8.7,10.6,12.2,13
		c0.5,0.3-0.2,1.2-0.3,1.2c-0.3,0.3-16.1-16.6-21.8-21.7s-23.1-20.6-29.8-25.4s-14.1-9.5-14.6-9.3
		C488.7,327.6,494.9,325.5,494.9,325.5z"/>
	<path class="st9" d="M487.4,328.1c0,0,18.6,14.6,25.6,21.8s23,19.5,29,24.6s12.9,11.1,12.9,11.1v1.5l-13.3-11.3
		c0,0,12.2,12.2,12.8,12.6c0.2,0.1-1,1.6-1,1.6s-12.8-14.2-21.9-22.1c-9.2-7.9-16.8-15.5-27.7-24.2s-20.3-13.9-20.3-13.9
		L487.4,328.1z"/>
	<path class="st9" d="M481,330.9c0,0,15,11,26.2,22.1s27.7,24.3,35.6,30.5c7.8,6.1,10.1,7.5,10.1,7.5l-0.3,1
		c0,0-29.8-22.6-37.8-29.9s-31-27.1-33.9-28.4s-3.4-1.3-3.4-1.3L481,330.9z"/>
	<path class="st9" d="M475.5,333.5c0,0,9,4.5,21.4,15.8s35.2,30.2,42.5,35.3s12.4,8.6,12.4,8.6l-1.3,0.1c0,0-10.1-6.5-20.4-14.6
		s-28.9-24.3-31.9-26.7c-3-2.3-17.5-13.9-22.8-16c-2.7-1.1-3-1.1-3-1.1L475.5,333.5z"/>
	<path class="st9" d="M470.1,336.6c0,0,10.6,3.8,20.6,12.2s27.9,23.5,32.9,27.6c5,4,16.4,12.4,17,12.4c0.6,0.1-1.6-0.2-1.6-0.2
		s-15-9.6-29.9-22.4s-34.8-26.4-40.1-28.7C468.3,337.2,470.1,336.6,470.1,336.6z"/>
	<path class="st9" d="M468,338.5c0,0,9.9,4.9,30.3,21.8s36.3,28,36.3,28s-2.2-0.5-5.7-2.3s-22.9-17.8-32.4-25s-23.2-18.7-26.4-20.1
		C466,339,468,338.5,468,338.5z"/>
	<path class="st0" d="M637,232.8c0,0,14.3-6.3,22-8.5s24.2-6.6,30.7-9s11-6.6,22.8-7.6s14.5-2.4,21-2.5s8.8-2.2,10,1.1
		s3,7.8,2.2,8.9s1.8,3.9-1,5.1s-9.8,1.8-10.2,3.9s-0.5,2.1-0.5,2.1s6.5,0.2,8.8,0s3.3-0.8,3.3-0.8l1.7-0.2l-1,4.7c0,0-0.8,1.2-1,2.6
		s-0.8,1.4-2.5,3.2s-3.5,4.8-3.5,4.8s2.2,0.2-1.8,1.8s-7.5,3-7.5,3H741c0,0,2.2,1.8,0.2,3.8s-4.8,3.5-5.8,4.5s2-0.5,3,2
		s1.8,6.5-0.2,7.2s-5.8,4.2-7,4.5s3.2,0.5,5.2,4.2s2.5,6,5.8,8.2s2.2,0.8,5.5,4s3,6.8,8.2,8.8s3.5,2.5,9,4.2s9.2,4.8,9.8,6.5
		s0.8,6.3-1,7.3c-1.8,1-7.5,3.2-10.8,4s-8.2,4-24.8,3.8s-12,0.8-30.8-2.2s-29.5-4.4-36.2-5.5c-6.8-1-14.8-2-17.5-2.5
		s-4.8-2.2-4.8-2.2l3-0.5c0,0,2.1-1,1.9-2.2s-1.5-2.6-2.5-4.7c-1-2.1-2.1-3.9-2-6.3c0-2.4,0.3-5.1,2-9.3c1.7-4.2,5.4-14.3,6-16.7
		c0.6-2.4,2.4-9.3,1.3-13.5c-1-4.2-1.8-7.1-2.6-8c-0.8-0.9-2.5-2.4-5.5-2.7c-2.9-0.3-6.2-0.1-9.1-0.7s-5.2-1.1-5.7-2
		c-0.5-0.8-0.5-2.8,0-3.9S637,232.8,637,232.8z"/>
	<path class="st2" d="M659.5,234c29.5-20.7,63.6-23.6,84-27.6c-20.8,4-66.5,12.7-83.3,29.7c-0.6-1.2,0-0.2-0.4-1.2
		C659.5,233.9,659.7,234.7,659.5,234z"/>
	<path class="st2" d="M661,238c22-19.3,63.5-25.4,83.5-29c-20.8,3.7-65.6,13.7-82.4,30.7c-0.6-0.9-0.4-0.6-0.6-1
		C660.8,237.7,661,238,661,238z"/>
	<path class="st10" d="M659.9,235.4c0.8,4.4,4.5,7.8,6.8,11.6c2,3.3,2.9,7.3,2.8,11.1c-0.2,4.5-1.9,8.7-3.7,12.8
		c-2.1,4.9-4.4,9.7-5.9,14.8c-1.5,5.1-2.3,8.1-1.2,13.3"/>
	<path class="st2" d="M663,241.4c22-19.3,62.7-22.6,82.9-26.9c-20.7,4.4-64.8,11.7-81.7,28.8c-0.5-1.1,0,0-0.7-1
		C662.8,241.1,663,241.4,663,241.4z"/>
	<path class="st2" d="M666.8,247.1c16.8-17,58.1-24.3,79-27.4c-20.1,3-55.7,5.9-80.4,25.2C665.4,244.9,666.3,246.1,666.8,247.1z"/>
	<path class="st2" d="M660.1,285.4c29.5,20.7,94.2,17.6,114.9,19.4c-21.3-1.9-91.1,0.1-114.2-22c-0.5,1.3-0.2,0.7-0.4,1.3
		C660.1,284.9,660.2,284.6,660.1,285.4z"/>
	<path class="st2" d="M658.9,289.9c29.5,20.7,95,20.2,115.7,19.8c-21.1,0.4-92.1,0.2-115.2-21.9c-0.4,1.4-0.1,0.6-0.3,1.3
		C658.9,289.9,659.1,289.1,658.9,289.9z"/>
	<path class="st2" d="M658.3,295.2c29.5,20.7,89.2,18.6,110,17.9c-21.5,0.8-86.7,1.7-109.8-20.4c-0.2,1-0.1,0.9-0.2,1.3
		C658.2,294.5,658.3,294.3,658.3,295.2z"/>
	<path class="st2" d="M658.3,300.8c26.8,15.2,78.2,15.7,99.1,15.7c-21.8,0-73.8-0.8-99.2-18.4c0,1.5,0,0.4,0,1.2
		C658.2,299.9,658.3,299.9,658.3,300.8z"/>
	<path class="st2" d="M661.6,280.9c29.5,20.7,85.5,14.3,106.3,17.2c-20.8-2.8-82.4,2.9-105.4-19.2c-0.5,1.3,0,0-0.4,1
		C661.8,280.5,661.9,280.4,661.6,280.9z"/>
	<path class="st2" d="M669,261.8c10.2,3.6,21.7,7.3,31.2,6.8c12.4-0.6,19.6-1.1,31.2-0.8c-10.8-0.3-18.9,1.1-29.7,2.1
		c-9.4,0.8-19.9-2.9-33-6.5C668.6,263.4,668.8,262.9,669,261.8z"/>
	<path class="st2" d="M668.1,265.1c10.2,3.6,27.3,8.2,36.8,7.7c12.4-0.6,21.8,0.2,32.8,1.3c-10.7-1.1-20.2-1.4-31.1-0.5
		c-9.4,0.8-25.8-3.4-39-7.1C667.7,266.6,667.9,266.2,668.1,265.1z"/>
	<path class="st2" d="M666.9,268.5c19.6,6.6,35.1,8.9,44.7,8.1c12.3-0.9,18.1,1.3,29.4,2.4c-10.7-1.1-19.4-2.3-30.2-1.3
		c-6.3,0.6-19.8-0.4-44.5-7.7C666.3,270,666.7,269.5,666.9,268.5z"/>
	<path class="st2" d="M665.3,272.1c10.2,3.6,30.2,10.2,46,11.2c12.4,0.8,26.7,1.1,37.7,2.2c-10.7-1.1-30.4,0.3-41.2-1.1
		c-19.3-2.5-30-7.3-43.2-11C664.7,273.5,665.1,272.6,665.3,272.1z"/>
	<path class="st2" d="M663.4,276.6c31,19.2,69,11.1,91.5,15.6c-20.6-4.2-64.9,1.6-91-16.8c-0.3,0.7,0.1-0.3-0.3,0.6
		C663.3,276.8,663.6,276.1,663.4,276.6z"/>
	<path class="st2" d="M667.8,249c30.6-19.4,45.9-18.8,66.2-22.5c-19.7,3.6-47.2,8.7-65.4,24.8c-0.3-0.9-0.3-0.8-0.4-1.2
		C668.1,249.6,668.1,249.9,667.8,249z"/>
	<path class="st2" d="M669.4,259.4c0,0,18.9,3.7,26.7,3.6s22.7-0.6,27.8-1.2c5.1-0.6,15.7-1.5,15.7-1.5s-17.6,1-24.5,1
		c-6.9,0-14.8,0.6-18.8,0.3c0,0,25.2-3.2,39.3-7.8c0,0-30.4,6.3-40.2,6.5c-9.8,0.1-25.8-2.5-25.8-2.5L669.4,259.4z"/>
	<path class="st2" d="M746.9,229.4c-11.7,4.5-27,6-44.2,10.4c-17.2,4.4-33.5,13.9-33.5,13.9l0.3,2c0,0,2.9-1.5,6.9-3.4
		c4.3-2.1,9.9-4.6,14.4-6.4c8.3-3.2,24.2-6.7,33.7-8.8C738.5,234,746.9,229.4,746.9,229.4z"/>
	<path class="st2" d="M742.1,247.7c0,0-20.2,5.9-36.1,6.1c-15.9,0.2-21.4-2-24.2-1.8c-2.8,0.2-5.4,0.5-5.4,0.5s1-0.5,3.5-1.7
		c2.5-1.1,1.7-0.7,1.7-0.7s10.2,2.7,22.5,2.7C716.4,252.7,726.2,250.6,742.1,247.7z"/>
	<path class="st2" d="M696.3,244.2c0,0,2.7,1.6,14.4,1.9c9.8,0.2,18-0.6,19.8-0.6c0.4,0-20.1-0.4-20.1-0.4s-10.4-0.9-11-1.8
		L696.3,244.2z"/>
	<path class="st8" d="M75.2,257.7"/>
	<path class="st8" d="M96,260.1"/>
	<path class="st0" d="M71,258.6c0,0-0.7-1.1-1.1-3.9c-0.4-3,3.2-5.9,3.2-5.9s5-3.8,10.8-2.7c5.8,1.2,8,4.2,9.8,6.7s2.9,6.2,2.6,6.8
		c-0.3,0.6-0.3,0.6-0.3,0.6s-3.6-6.2-5.4-7.1c-1.8-0.9-3.5-1.2-4.5,0.4c-0.4,0.7-0.6,1-0.6,1l-0.3,0.6c0,0-7.9-1.6-11.4,1.2
		c-3.5,2.8-4.2,4.4-4.2,5.3l-0.8-1c-0.3-0.6-0.9-2.5-1-4.2c-0.3-3.5,0.6-6.8,3.8-10.4c3.2-3.7,12.6-7.2,17.8-6
		c4.7,1.1,7,4.7,8.3,9.8c1.4,5.1-1,9-1,9l-0.2,0.6l-0.1,0.3"/>
	<path class="st2" d="M69.5,261.5c0,0,1.6,5.3,7.1,6.8s6,1.7,8.7,1s3.3,0.5,6.5-3.2s4.3-5.9,4.3-5.9s-2.2-3.8-3.3-5
		c-1.1-1.3-2.1-2.3-3.1-2.5c-1-0.3-1.8-0.4-2.2-0.2c-0.4,0.1-0.9,0.4-1.2,0.9c-0.3,0.5-1.1,1.8-1.1,1.8s-1.5,4.5-2.8,6
		s-3.5,2.9-4.5,3.4c-0.5,0.2-1.3,0.4-2.2-0.1c-1.1-0.6-3.6-3.3-4.1-4.4s-0.5-1.2-0.5-1.2s-0.6,0.6-0.9,1.2
		C69.8,260.4,69.4,261.3,69.5,261.5z"/>
	<path class="st0" d="M38.3,281.2c0,0,8.6,9.8,9.7,11.8s1.8,4.9,4.2,7c2.5,2.1,2.3,2.3,3.8,4.2c1.5,1.8,5.5,3.2,6.9,2.7
		c1.4-0.6,2.1-1.9,3.2-1.9s4.7-1.5,5.3-2.2c0.7-0.8,0.1-6.4,1.7-9.4s5.2-5.7,2.2-7.8c-3-2.2-9-3.3-14-3.8c-5-0.4-13.7-3-16.9-5.6
		s-5.2-8.8-6.8-10c-1.7-1.2-3-1.4-3.8-2.1c-0.9-0.9-1-2.1-0.9-2.9s1.8-4,2.8-4.8"/>
	<path class="st0" d="M45.4,289.5c-9.8-1.6-15-4.2-15-4.2s-3.2-1.2-2.5-2c0.8-0.8,4-0.7,4-0.7h7.7"/>
	<path class="st11" d="M22.8,282.7c0,0,4.7,6,17.2,8.9c8.4,1.9,8.8,3.1,8.8,3.1"/>
	<path class="st0" d="M130,247c0,0-1.5,6.2-1.3,23.3c0.2,17,3.8,20-3.2,27.2s-12.8,7.7-19.2,8.2c-6.3,0.5-17.5-0.3-19.1,0.3
		s-3.6,3.6,0.8,5.6s8.5,7.5,17.8,7.6s21,1.3,26.8-1.2c5.8-2.5,8.8-4.9,11.3-8.6s5-5.7,2-15.9s-4.7-11.7-5.5-25.7
		c-0.8-14,1.3-12.8-2.2-17.5C134.8,245.7,130.5,243.9,130,247z"/>
	<path class="st0" d="M209.5,259.2c0,0-5,5.2-8.5,9c-3.5,3.8-5.2,8.6-10.3,17.9c-5.2,9.3-8.3,16-12.8,19.6c-4.5,3.7-11.5,11-18,14.3
		s-12.8,7-24.5,7c-11.7,0-15.8-0.9-18.2-1.5c-2.3-0.7-9.7-1.8-11.7-1.2s-3.1,1.2-3.1,1.2s4.4,2,6.8,3s6.8,3,6.8,3s1.2-0.2,6.5,0
		s8.8,3.3,19.3,0.2s26.3-11.7,34.2-19.1c7.8-7.3,14.2-17.7,18.5-20.7s10.2-5.2,13.5-9.3c3.3-4.2,8.2-9.4,8.3-12.8
		c0.2-3.4-1.2-3.6-2.5-6.9C212.5,259.7,211.5,257.1,209.5,259.2z"/>
	<g>
		<g>
			<path class="st11" d="M19.9,319.9"/>
		</g>
	</g>
	<path class="st9" d="M47.5,277.7c0,0,4.1,4.3,10.5,6.8s10.3,0.9,11.9,4.4s2.6,8.2,2.2,10.9c-0.4,2.7,0.4-5.6,1.6-7.2
		c1.1-1.6,2.2-2.7,2.6-4c0.4-1.3,0.5-1.8-0.2-2.9s-2.7-1.5-5.3-2.6c-2.7-1.1-3.1-0.7-8.4-1.5s-5.3-0.5-9.1-1.8
		C49.3,278.5,47.5,277.7,47.5,277.7"/>
</g>
</svg>
