<?xml version="1.0" encoding="UTF-8" standalone="no"?>
<svg
   xmlns:dc="http://purl.org/dc/elements/1.1/"
   xmlns:cc="http://creativecommons.org/ns#"
   xmlns:rdf="http://www.w3.org/1999/02/22-rdf-syntax-ns#"
   xmlns:svg="http://www.w3.org/2000/svg"
   xmlns="http://www.w3.org/2000/svg"
   viewBox="0 0 786.23999 269.76001"
   height="269.76001"
   width="786.23999"
   xml:space="preserve"
   id="svg2"
   version="1.1"><metadata
     id="metadata8"><rdf:RDF><cc:Work
         rdf:about=""><dc:format>image/svg+xml</dc:format><dc:type
           rdf:resource="http://purl.org/dc/dcmitype/StillImage" /></cc:Work></rdf:RDF></metadata><defs
     id="defs6"><clipPath
       id="clipPath18"
       clipPathUnits="userSpaceOnUse"><path
         id="path16"
         d="M 0,202.32 H 589.68 V 0 H 0 Z" /></clipPath><clipPath
       id="clipPath26"
       clipPathUnits="userSpaceOnUse"><path
         id="path24"
         d="M -0.125,202.445 H 494.333 V -0.125 H -0.125 Z" /></clipPath></defs><g
     transform="matrix(1.3333333,0,0,-1.3333333,0,269.76)"
     id="g10"><g
       id="g12"><g
         clip-path="url(#clipPath18)"
         id="g14"><g
           id="g20"><g
             id="g22" /><g
             id="g32"><g
               style="opacity:0.50999499"
               id="g30"
               clip-path="url(#clipPath26)"><path
                 id="path28"
                 style="fill:none;stroke:#000000;stroke-width:0.25;stroke-linecap:butt;stroke-linejoin:miter;stroke-miterlimit:4;stroke-dasharray:none;stroke-opacity:1"
                 d="M 494.333,202.32 H 0 V 0 h 494.333" /></g></g></g><path
           id="path34"
           style="fill:none;stroke:#000000;stroke-width:0.25;stroke-linecap:butt;stroke-linejoin:miter;stroke-miterlimit:4;stroke-dasharray:none;stroke-opacity:1"
           d="m 19.333,153.32 c 1.667,0 5.333,1.333 10.333,2.333 5,1 20.001,3.334 29.334,3.667 9.333,0.333 16,1 23.666,2.667 7.667,1.666 49.667,15 61.667,16 12,1 70.667,9.333 85.333,9.333 14.667,0 52,-2 67,-1 15,1 36.667,3.667 45.667,3.667 9,0 38.666,-1.667 51.333,-4.334 12.667,-2.666 36.667,-10 47.667,-15.333 11,-5.333 30.175,-18.33 35,-25 5.667,-7.833 5.834,-22 -11.667,-41 -17.087,-18.55 -48,-33.667 -71.333,-43.667 -23.333,-10 -47.667,-22 -54,-25.333 C 333,31.987 302,25.653 295.666,24.653 c -6.333,-1 -28,-1.666 -37.333,-4.666 C 249,16.987 214.667,8.319 206,7.653 197.333,6.987 177,4.321 157,12.987 137,21.653 111.333,31.32 104.333,43.32 c -7,12 -7,14.667 -7,14.667 0,0 0.5,-1.334 -4.333,-1.334 -7.667,0 -27.667,2 -34.334,7 C 52,68.653 43.667,77.987 39,86.32 34.333,94.653 34.333,96.987 32.666,100.653 31,104.32 32.018,103.861 31,107.32 c -0.625,2.125 0.5,3.625 -2.5,3.625 -4.773,0 -2.167,0.375 -7.834,0.708 -5.666,0.334 -8.666,-0.666 -8,3.334 0.667,4 1.667,5 0.334,6.333 -1.334,1.333 -1.667,1.667 -3,6 -1.334,4.333 -1,4.333 -0.334,6 0.667,1.667 1.667,1.667 -1,6 C 6,143.653 5.333,142.987 6,145.987 c 0.666,3 -2.667,1.666 0.666,3 3.334,1.333 12.667,4.333 12.667,4.333 z" /><path
           id="path36"
           style="fill:none;stroke:#000000;stroke-width:0.25;stroke-linecap:butt;stroke-linejoin:miter;stroke-miterlimit:4;stroke-dasharray:none;stroke-opacity:1"
           d="m 83.25,147.195 c 0.933,-2.279 1.083,-3.208 1.083,-3.208 0,0 0.917,-0.167 -2.083,-1.167 -3,-1 -4.917,-1.167 -9.25,-1.167 -4.333,0 -22.667,-1.666 -27,-2.666 -4.333,-1 -6.667,-2.667 -9.667,-3 -3,-0.334 -6.666,-2.334 -9.666,-2.334 -3,0 -4,0 -5,0.334 -1,0.333 -0.334,-0.667 -3,0.333 -2.667,1 -5.334,-0.667 -5.334,1.333 v 5.667 c 0,3 -1,8 3.334,8.667 0,0 5.666,-0.334 10.666,2 5,2.333 5.334,2.666 9.334,3.666 4,1 7.333,1 11.666,1 4.334,0 5.333,0.667 11,0.667 H 69 c 5.333,0 5,0.667 8,0 3,-0.667 3,-1.333 4,-5 0.371,-1.362 0.949,-2.152 1.5,-3.5 0,0 -17.625,-2.875 -22.875,-3.25 -5.25,-0.375 -19.5,-1.625 -23.75,-2.125 -4.25,-0.5 -15.25,-1.375 -16.75,-1.375 -1.5,0 -2.125,-0.25 -2.125,-0.25 0,0 0,-0.375 1.75,-0.375 1.75,0 11.875,0.625 16,0.75 4.125,0.125 14.375,1.375 18.5,1.75 4.125,0.375 13.25,1.25 17.125,1.875 3.875,0.625 7.25,1.125 8.25,1.125 1,0 4.625,0.25 4.625,0.25 z" /><path
           id="path38"
           style="fill:none;stroke:#000000;stroke-width:0.25;stroke-linecap:butt;stroke-linejoin:miter;stroke-miterlimit:4;stroke-dasharray:none;stroke-opacity:1"
           d="m 98.125,162.07 c 1.445,0.347 1.25,0.25 2.542,0.583 6.43,1.661 18.666,6.667 31,9.334 12.333,2.666 18.333,3.333 27.333,4.666 9,1.334 34,4.334 41.333,4.667 7.334,0.333 29.667,4 37.667,3.667 8,-0.334 20.667,-0.334 25.667,-0.667 5,-0.333 16.666,0 16.666,0 0,0 -11,-4.667 -21,-8 -10,-3.333 -34.666,-10.333 -41.333,-11.667 -6.667,-1.333 -37,-5.666 -44.333,-6.666 -7.334,-1 -21,-2 -25.667,-2.334 -4.667,-0.333 -14.363,-1.604 -17,-2 -3.333,-0.5 -6.696,-1.937 -9.333,-2.333 -3.334,-0.5 -2.667,-1.333 -10.334,-1.333 -7.666,0 -17.666,0 -19.666,-0.334 -2,-0.333 -7,-0.333 -7,-0.333 0,0 -4.667,9.333 -3.334,9.333 0,0 8.769,1.35 15.411,2.94 z" /><path
           id="path40"
           style="fill:none;stroke:#000000;stroke-width:0.25;stroke-linecap:butt;stroke-linejoin:miter;stroke-miterlimit:4;stroke-dasharray:none;stroke-opacity:1"
           d="m 85.333,147.32 c 0,0 0.667,-2.333 2,-2.667 1.333,-0.333 2,-1.666 8.333,-1 6.334,0.667 16.334,1.334 21,2 4.667,0.667 14,2.667 18,3 4,0.334 16.667,1.334 19.667,1 3,-0.333 23,-0.333 25.667,-0.333 2.666,0 17.666,2 23.333,3 5.667,1 26,5 32.333,6.667 6.334,1.666 22.001,8.333 28.334,10.666 6.333,2.334 20,6.667 23.333,8 3.333,1.334 15.834,3.834 18.167,3.834 2.333,0 10.5,0.833 17.833,0.166 7.333,-0.666 17.333,-2.333 23,-2.333 5.667,0 11.333,-0.667 16.333,0 5,0.667 10,1 12,1.667 2,0.666 5.667,2 5.667,2 0,0 -10.333,2 -18.333,2.666 -8,0.667 -18.668,2 -25.334,1 -6.666,-1 -15,-1.666 -18.333,-1.666 -3.333,0 -14.666,-0.667 -18.333,-1 -3.667,-0.334 -16,0 -16,0 0,0 -12,-4.667 -18,-6.334 -6,-1.666 -17.334,-6.333 -24.334,-8 -7,-1.666 -13.999,-4 -19.666,-5.333 -5.667,-1.333 -28.667,-4.667 -32.334,-5.333 -3.666,-0.667 -19.999,-3 -24.666,-3.334 -4.667,-0.333 -6.334,-0.666 -12.334,-1 -6,-0.333 -9.333,-0.666 -13,-1 C 136,153.32 135,152.987 130,151.987 c -5,-1 -8,-2 -11.334,-2.334 -3.333,-0.333 -8,-0.666 -11,-0.666 -3,0 -6,-0.334 -10.666,-0.334 -4.667,0 -11.667,-1.333 -11.667,-1.333 z" /><path
           id="path42"
           style="fill:none;stroke:#000000;stroke-width:0.25;stroke-linecap:butt;stroke-linejoin:miter;stroke-miterlimit:4;stroke-dasharray:none;stroke-opacity:1"
           d="m 41.667,135.654 c 0,0 12,-7 18,-9 6,-2 15.333,-5 15.333,-5 0,0 5.667,0.666 12.667,7.333 7,6.667 21,11.667 24,11.667 3,0 17.666,2 25,2 7.333,0 26.333,-0.333 33.666,-0.333 7.334,0 21.667,0.333 26.334,0.333 4.666,0 27.666,1.667 27.666,1.667 0,0 4.667,3 7,4.333 2.334,1.333 5.334,3.333 11.667,4.333 6.333,1 38,3.333 45.667,4 7.667,0.667 20.999,2.334 28.999,3.334 8,1 18.334,2.333 21.668,2.666 3.332,0.334 10.666,1 19.666,1 9,0 23.666,-1.333 32.666,-2 9,-0.666 13,-0.667 17.668,-1 4.666,-0.333 9.666,0 13.332,1 3.668,1 10.168,6.5 10.168,7.834 0,1.333 -8.834,3.833 -11.5,4.833 -2.668,1 -27,7.167 -28.668,7.167 -1.666,0 -6.332,0.833 -6.332,0.833 0,0 -1.002,0 -3.668,-1 -2.666,-1 -6.666,-1.333 -11,-2.333 -4.332,-1 -12.334,-0.668 -18,-1.001 -5.666,-0.333 -24,1.333 -26.666,1.667 -2.666,0.333 -9.834,0.334 -14.5,0.334 -4.666,0 -14,-1.334 -18.667,-2.667 -4.666,-1.334 -24.833,-7.334 -29.166,-9.334 -4.334,-2 -14,-5.333 -19.334,-7.333 -5.333,-2 -16.333,-4.333 -23.666,-6.333 -7.334,-2 -29.334,-5.001 -33,-5.667 C 185,148.32 166,148.32 162,148.32 c -4,0 -16.667,0.334 -19.667,0 -3,-0.333 -12.333,-1.667 -16,-2.333 -3.666,-0.667 -22,-2.667 -25.666,-3 -3.667,-0.333 -14,-1 -18,-1.667 -4,-0.666 -9.334,-0.666 -13,-1 C 66,139.987 56,138.654 54,138.654 c -2,0 -12.667,-2.333 -12.333,-3 z" /><path
           id="path44"
           style="fill:none;stroke:#000000;stroke-width:0.25;stroke-linecap:butt;stroke-linejoin:miter;stroke-miterlimit:4;stroke-dasharray:none;stroke-opacity:1"
           d="m 229.333,143.986 c 0,0 2,3.667 5.667,5.333 3.666,1.667 22.333,4 29.666,4 7.334,0 29.667,2.667 35.667,3 6,0.334 28.666,4.334 32.333,4.667 3.667,0.333 14.668,0.667 18.334,0.667 3.666,0 15.334,1 21,0.666 5.666,-0.333 21.332,-2.666 27.666,-2.666 6.334,0 16.666,-0.667 20,0 3.334,0.666 7,2.333 9.667,3.666 2.667,1.334 4.333,4.334 6.333,4.334 2,0 3.668,-0.334 8.334,-2.667 4.666,-2.333 16.667,-9.333 18,-10.667 1.333,-1.333 5.666,-3.999 4.666,-5.666 -1,-1.667 -4,-7 -17,-9.667 -13,-2.667 -17.334,-3 -30,-2.667 0,0 -32,2.334 -38,2 -6,-0.333 -44.667,0.667 -51,0 -6.333,-0.666 -37.333,-1 -43.333,-1 -6,0 -30.333,0.667 -36.333,1 -6,0.334 -10,0 -13.334,1 -3.333,1 -8,2 -8.333,4.667 z" /><path
           id="path46"
           style="fill:none;stroke:#000000;stroke-width:0.25;stroke-linecap:butt;stroke-linejoin:miter;stroke-miterlimit:4;stroke-dasharray:none;stroke-opacity:1"
           d="m 206,7.653 c -8.667,-0.666 -29,-3.332 -49,5.334 -20,8.666 -45.667,18.333 -52.667,30.333 -7,12 -5.666,14.667 -5.666,14.667 v 1.333 c 0,0 -0.5,3.5 -0.5,6 0,2.5 -0.667,15.833 -1.334,17.833 -0.666,2 -8.333,11.333 -11.166,13.5 -2.834,2.167 -14.5,8.167 -16.5,9.333 -2,1.167 -2.167,1.334 -2.167,1.334 h 5.667 c 1.666,0 6.833,-1.5 9.5,-1.834 2.666,-0.333 9,-1.5 11,-2.166 2,-0.667 4.166,-1.833 6.333,-3.667 2.167,-1.834 3,-2.333 4.5,-4 1.5,-1.667 9,-9.5 10.5,-11.666 1.5,-2.166 8.833,-8.5 10.667,-10.167 1.833,-1.667 9.166,-4.5 10.833,-4.833 1.667,-0.333 2.333,0 2.333,0 l -1,0.666 c 0,0 -2,0.667 -4.333,1.333 -2.333,0.666 -6.667,3.667 -9,5.334 -2.333,1.667 -12,12.333 -14.333,14.666 -2.334,2.333 -11,11.667 -13.334,12.667 -2.333,1 -7.333,2.333 -10.666,2.333 -3.334,0 -8.667,2 -13,2.667 -4.334,0.667 -7.334,0.667 -9.334,0.667 -2,0 -4.666,2.666 -6.666,4 -2,1.333 -8,2 -10,2 -2,0 -7,-1 -11.667,-1.334 -4.667,-0.333 -7.667,0 -7.667,0 0,0 -1,7.667 -1.333,9.334 -0.333,1.666 -1,5.333 -1,5.333 0,0 5.667,-1 7,-1 1.333,0 5,-1.667 8.667,-3 3.666,-1.333 9.333,-5 12.666,-5.333 3.333,-0.334 3.667,0.333 5,1.666 1.333,1.333 3,3.334 3,3.334 0,0 20.667,-5.667 21.667,-5.667 1,0 7.333,-8 9.333,-9.333 2,-1.334 6.667,-3.667 10,-4.667 3.333,-1 7.667,-3 9.667,-3.667 2,-0.667 17,-6.666 20,-8 3,-1.334 12.333,-7.333 17,-10.333 4.667,-3 26,-15 31,-17.333 5,-2.333 36,-17.334 41,-18.667 5,-1.333 24,-9.333 27.667,-10.333 3.666,-1 15,-12 15,-12 0,0 -2.667,2.666 -3.667,4.666 -1,2 -9,8 -10.333,9.667 -1.334,1.667 -3.334,7.667 -6.667,17.667 -3.333,10 -12,21.333 -14.667,24 -2.667,2.667 -0.666,5.666 -0.666,5.666 0,0 7.333,2.334 10.666,3.667 3.333,1.333 7,2 8.667,2 1.667,0 4.667,-2.667 7,-3.667 2.333,-1 19,-12 21.667,-13.333 C 278.333,73.32 297,61.32 302,59.32 c 5,-2 12.499,-7.667 15.833,-10.334 3.334,-2.667 5.5,-9.333 5.5,-9.333 v 3.167 c 0,0 0.334,-1.834 -1.333,3.166 -1.227,3.678 -1.667,4 -1.667,4 0,0 1.167,1.334 8.5,2.834 3.366,0.688 22.501,9.5 28.834,12.5 6.333,3 19.499,14 21.166,16 1.667,2 3.334,1.833 5,2.166 1.666,0.333 5.5,1.834 7.167,2.5 1.667,0.666 3,3 6.333,4.667 3.333,1.667 11.333,6 15.667,7.667 4.334,1.667 17.666,10 24,16.333 6.334,6.333 7.666,14.333 8.333,18 0.667,3.667 1,2.667 1.333,3.667 0.333,1 5.334,1.333 7.667,2 2.333,0.666 7.667,4 9.669,5 2.083,1.044 3.318,3.9 5.998,3 6.5,-6.667 13.168,-15.834 -6.666,-41.5 -15.422,-19.956 -46.668,-34.167 -70.001,-44.167 -23.333,-10 -47.667,-22 -54,-25.333 C 333,31.987 302,25.653 295.667,24.653 c -6.334,-1 -28.001,-1.666 -37.334,-4.666 C 249,16.987 214.667,8.319 206,7.653" /><path
           id="path48"
           style="fill:none;stroke:#000000;stroke-width:0.25;stroke-linecap:butt;stroke-linejoin:miter;stroke-miterlimit:4;stroke-dasharray:none;stroke-opacity:1"
           d="m 300.333,135.487 c 0,0 4.334,-0.333 7.334,0 3,0.333 21.5,1 25.833,1 4.333,0 20.999,0.833 25.333,0.833 4.334,0 27.168,0.167 32.834,-0.333 5.666,-0.5 11.166,-1.167 18.166,-1.667 7,-0.5 10.333,-0.333 15.5,-0.333 5.167,0 7.5,0.167 11,0.333 3.5,0.167 4.333,0.667 5.5,0.167 1.167,-0.5 1.667,-0.833 1.667,-2.167 0,-1.333 -0.166,-11.166 -7.333,-17.5 -7.167,-6.333 -10.666,-9.666 -20,-13.666 -9.334,-4.001 -16.5,-7.834 -19.167,-9.668 -2.667,-1.833 -6.001,-4.166 -7.667,-5.5 -1.666,-1.333 -3.332,-1.667 -5.166,-1.667 -1.834,0 -3.834,0 -6.834,1.834 -3,1.833 -6.666,4 -11.166,4.833 -4.5,0.833 -12.999,2 -17.333,3.333 -4.334,1.334 -12.668,4 -16.834,4.834 -4.166,0.834 -13.167,3.001 -16,3.667 -2.833,0.667 -2.5,1.5 -6.5,9 -4,7.5 -8,14.834 -8.833,16.667 -0.833,1.833 -1.335,6 -0.334,6 z" /><path
           id="path50"
           style="fill:none;stroke:#000000;stroke-width:0.25;stroke-linecap:butt;stroke-linejoin:miter;stroke-miterlimit:4;stroke-dasharray:none;stroke-opacity:1"
           d="m 254.333,109.32 c 0,0 20.667,-3 24.834,-3.333 4.166,-0.334 23.333,-2 27.999,-2.667 4.668,-0.667 21.334,-3.167 25.668,-4.667 4.332,-1.5 12.666,-4.499 17,-5.166 4.332,-0.667 16.832,-3.166 19.166,-4 2.334,-0.834 7.834,-2.834 8,-4.334 0.166,-1.5 1.5,-2.5 -4.334,-7.5 -5.832,-5 -10.332,-9.167 -29.5,-17 -19.166,-7.833 -21,-8.166 -24.5,-7.166 -3.5,1 -26.499,12 -33.499,16.5 -7,4.5 -17.167,11.333 -18.5,12.333 -1.334,1 -10,5.667 -13.5,7.667 -3.5,2 -5.5,1.666 -6.167,4.833 -0.667,3.167 0.167,7.5 1.167,9.5 1,2 3,5 6.166,5 z" /><path
           id="path52"
           style="fill:none;stroke:#000000;stroke-width:0.25;stroke-linecap:butt;stroke-linejoin:miter;stroke-miterlimit:4;stroke-dasharray:none;stroke-opacity:1"
           d="m 89.833,120.653 c 0,0 19.334,11.5 38.667,10.5 19.333,-1 44.5,-6.833 51.667,-9 7.166,-2.167 34,-8 43,-8.667 9,-0.666 18.5,-1.333 21,-2.5 2.5,-1.166 3.333,-0.166 3.5,-2.166 0.166,-2 -2.167,-7.334 -2.334,-9.834 -0.166,-2.5 -0.5,-4.166 -0.833,-5.166 -0.333,-1 -5.833,-2.834 -8,-3.667 -2.167,-0.833 -9.667,-3.666 -11.167,-3.333 -1.5,0.333 -23.166,13.666 -26.166,15.333 -3,1.667 -23.167,10.833 -28.834,12 -5.666,1.167 -18.666,3 -26.166,3 -7.5,0 -19.167,1.333 -26.167,1.333 -7,0 -23.833,0.667 -25.833,0.667 -2,0 -3.334,0.167 -3.334,0.167 z" /><path
           id="path54"
           style="fill:none;stroke:#000000;stroke-width:0.25;stroke-linecap:butt;stroke-linejoin:miter;stroke-miterlimit:4;stroke-dasharray:none;stroke-opacity:1"
           d="m 87.333,117.32 c 0,0 17,-0.5 24.834,-0.5 7.833,0 42.333,-0.667 50.166,-2.333 7.834,-1.667 23,-5.834 35.334,-13 C 210,94.32 219.434,88.33 225.833,81.486 c 12,-12.833 22.167,-37.5 18.667,-40.5 0,0 -2.667,-0.166 -9.333,1.834 -6.667,2 -37.667,15 -43.834,18.333 -6.166,3.333 -23.666,11.999 -29,15.333 C 157,79.82 140.833,89.82 138.5,91.32 c -2.333,1.5 -17.5,8 -20.5,9 -3,1 -17.5,6.166 -19.833,7.333 -2.334,1.167 -8,5.167 -8,5.167 L 88,115.153 c 0,0 13.833,-0.333 17.5,-1 3.667,-0.666 19.667,-2.666 23.5,-3.166 3.833,-0.5 16.5,-0.5 25.5,-2.667 9,-2.167 27.333,-8.834 34.667,-13.334 7.333,-4.5 21.166,-13.166 25.5,-18.333 4.333,-5.167 3,-2.167 3,-2.167 0,0 -6.167,7 -9,9 -2.834,2 -18.5,12.166 -21.834,14 -3.333,1.834 -14,6.001 -17.166,7.334 -3.167,1.333 -15,4.5 -20.334,5.333 C 144,110.987 133,111.82 131,111.82 c -2,0 -10.667,1.333 -14.5,1.833 -3.833,0.5 -12.667,1.833 -15.667,2 -3,0.167 -13.666,0.5 -13.666,0.5 0,0 -0.834,1.167 0.166,1.167 z" /><path
           id="path56"
           style="fill:none;stroke:#000000;stroke-width:0.25;stroke-linecap:butt;stroke-linejoin:miter;stroke-miterlimit:4;stroke-dasharray:none;stroke-opacity:1"
           d="m 97.333,57.987 c 0,0 0.375,-0.542 -4.458,-0.542 -7.667,0 -26.459,2.125 -33.125,7.125 -6.667,5 -14.458,13.667 -19.125,22 -4.667,8.333 -4.709,10.209 -6.375,13.875 -1.667,3.667 -1,3.5 -2,7 L 32,111.57 c 0,0 3.5,-0.25 6,0.5 2.5,0.75 5.25,1.5 7.75,1.5 2.5,0 6,-0.25 7.75,-1 1.75,-0.75 5.5,-2 7.75,-3.75 2.25,-1.75 5,-3.5 8.75,-5.25 3.75,-1.75 11,-5 11,-5 0,0 4,-2.75 8,-7 4,-4.25 7,-8 7.25,-16.75 0.25,-8.75 1,-15 1,-15 z" /><path
           id="path58"
           style="fill:none;stroke:#000000;stroke-width:0.25;stroke-linecap:butt;stroke-linejoin:miter;stroke-miterlimit:4;stroke-dasharray:none;stroke-opacity:1"
           d="m 23.375,131.445 c 0,0 3.125,1 6.125,1.625 3,0.625 4.875,1.5 7.75,1.125 2.875,-0.375 9.375,-3.875 13.125,-5.75 3.75,-1.875 7.875,-3.125 8.375,-3.25 0.5,-0.125 1.125,-0.625 1.125,-0.625 0,0 -0.125,-1.375 -1.375,-2.375 -1.424,-1.139 -2.131,-2.118 -4.125,-2.209 -3.193,-0.145 -5.946,1.725 -8.65,3.157 -2.248,1.19 -4.503,2.44 -6.85,3.427 -2.375,1 -7.5,2.375 -9.25,2.5 -1.75,0.125 -5.375,0.375 -5.375,0.375 0,0 -1.625,1.875 -0.875,2 z" /><path
           id="path60"
           style="fill:none;stroke:#000000;stroke-width:0.25;stroke-linecap:butt;stroke-linejoin:miter;stroke-miterlimit:4;stroke-dasharray:none;stroke-opacity:1"
           d="m 150.125,130.07 c 0,0 4.75,3.125 13.625,3.5 8.875,0.375 34.5,-0.875 41,-1.75 6.5,-0.875 24.375,-3.25 30,-4.25 5.625,-1 18.125,-3.25 22.5,-4.375 4.375,-1.125 20.25,-5.125 23.875,-5.875 3.625,-0.75 8.125,-1.5 13.875,-2.75 5.75,-1.25 5.75,-1.5 8.125,-1.875 2.375,-0.375 12.5,-2.5 18.875,-4.125 6.375,-1.625 15,-4.25 20.625,-6.125 5.625,-1.875 11.625,-4.25 11.625,-4.25 l 0.125,0.625 c 0,0 -6,2.375 -11.625,4.25 -5.625,1.875 -14.25,4.5 -20.625,6.125 -6.375,1.625 -16.5,3.75 -18.875,4.125 -2.375,0.375 -2.375,0.625 -8.125,1.875 -5.75,1.25 -10.25,2 -13.875,2.75 -3.625,0.75 -19.5,4.75 -23.875,5.875 -4.375,1.125 -16.875,3.375 -22.5,4.375 -5.625,1 -23.5,3.375 -30,4.25 -6.5,0.875 -32.125,2.125 -41,1.75 C 155,133.82 149.5,130.445 149.5,130.445 h -0.75 c -5.42,0.851 -9.458,1.391 -10.583,1.542 -2.5,0.333 -18,0.166 -20,0 -2,-0.167 -15.167,-3.334 -18.167,-5 -3,-1.667 -10.833,-4.5 -11.833,-5.167 -1,-0.667 -2.5,-1.5 -2.5,-1.5 l -6.834,0.833 1.667,1.167 c 0,0 11.167,8.5 14.5,10.333 3.333,1.834 11.167,5.833 17.167,6.5 6,0.667 23,3.334 42.666,1.834 19.667,-1.5 40.334,0.499 46.334,0.666 6,0.167 18.5,0.167 21,0.334 2.5,0.166 4,0.666 7,-1.167 3,-1.833 8,-2.833 13,-3.333 5,-0.5 19.166,-1.167 22.833,-1.167 3.667,0 15.5,-0.5 20.167,-0.5 4.666,0 8.5,-0.167 9.666,-0.167 1.167,0 2.168,-0.333 2.834,-2.166 0.666,-1.834 6,-14.334 7.5,-17 1.5,-2.667 5.166,-9.834 4.833,-10.5 -0.333,-0.667 -0.832,-1.834 -8.833,-0.834 -8,1 -42.667,4.5 -52.167,6.334 -9.5,1.833 -31,3.833 -34,4.666 -3,0.834 -16.5,3 -21.5,4.334 -5,1.333 -23.667,5.166 -27.667,6.666 -2.199,0.826 -9.459,1.753 -16.083,2.792 z" /></g></g></g></svg>
